<?xml version="1.0" encoding="utf-8" standalone="no"?>
<!DOCTYPE svg PUBLIC "-//W3C//DTD SVG 1.1//EN"
  "http://www.w3.org/Graphics/SVG/1.1/DTD/svg11.dtd">
<svg xmlns:xlink="http://www.w3.org/1999/xlink" width="519.84pt" height="313.776pt" viewBox="0 0 519.84 313.776" xmlns="http://www.w3.org/2000/svg" version="1.1">
 <metadata>
  <rdf:RDF xmlns:dc="http://purl.org/dc/elements/1.1/" xmlns:cc="http://creativecommons.org/ns#" xmlns:rdf="http://www.w3.org/1999/02/22-rdf-syntax-ns#">
   <cc:Work>
    <dc:type rdf:resource="http://purl.org/dc/dcmitype/StillImage"/>
    <dc:date>2026-09-02T23:35:58.361593</dc:date>
    <dc:format>image/svg+xml</dc:format>
    <dc:creator>
     <cc:Agent>
      <dc:title>Matplotlib v3.11.1, https://matplotlib.org/</dc:title>
     </cc:Agent>
    </dc:creator>
   </cc:Work>
  </rdf:RDF>
 </metadata>
 <defs>
  <style type="text/css">*{stroke-linejoin: round; stroke-linecap: butt}</style>
 </defs>
 <g id="figure_1">
  <g id="patch_1">
   <path d="M 0 313.776 
L 519.84 313.776 
L 519.84 0 
L 0 0 
z
" style="fill: #ffffff"/>
  </g>
  <g id="axes_1">
   <g id="patch_2">
    <path d="M 68.462344 254.265656 
L 512.64 254.265656 
L 512.64 47.376 
L 68.462344 47.376 
z
" style="fill: #ffffff"/>
   </g>
   <g id="matplotlib.axis_1">
    <g id="xtick_1">
     <g id="line2d_1">
      <defs>
       <path id="m7abf299673" d="M 0 0 
L 0 6 
" style="stroke: #262626; stroke-width: 1.25"/>
      </defs>
      <g>
       <use xlink:href="#m7abf299673" x="77.115155" y="254.265656" style="fill: #262626; stroke: #262626; stroke-width: 1.25"/>
      </g>
     </g>
     <g id="text_1">
      <!-- 0 -->
      <g style="fill: #262626" transform="translate(74.25203 270.603547) scale(0.09 -0.09)">
       <defs>
        <path id="DejaVuSans-13" d="M 2034 4250 
Q 1547 4250 1301 3770 
Q 1056 3291 1056 2328 
Q 1056 1369 1301 889 
Q 1547 409 2034 409 
Q 2525 409 2770 889 
Q 3016 1369 3016 2328 
Q 3016 3291 2770 3770 
Q 2525 4250 2034 4250 
z
M 2034 4750 
Q 2819 4750 3233 4129 
Q 3647 3509 3647 2328 
Q 3647 1150 3233 529 
Q 2819 -91 2034 -91 
Q 1250 -91 836 529 
Q 422 1150 422 2328 
Q 422 3509 836 4129 
Q 1250 4750 2034 4750 
z
" transform="scale(0.015625)"/>
       </defs>
       <use xlink:href="#DejaVuSans-13"/>
      </g>
     </g>
    </g>
    <g id="xtick_2">
     <g id="line2d_2">
      <g>
       <use xlink:href="#m7abf299673" x="134.800565" y="254.265656" style="fill: #262626; stroke: #262626; stroke-width: 1.25"/>
      </g>
     </g>
     <g id="text_2">
      <!-- 10 -->
      <g style="fill: #262626" transform="translate(129.074315 270.603547) scale(0.09 -0.09)">
       <defs>
        <path id="DejaVuSans-14" d="M 794 531 
L 1825 531 
L 1825 4091 
L 703 3866 
L 703 4441 
L 1819 4666 
L 2450 4666 
L 2450 531 
L 3481 531 
L 3481 0 
L 794 0 
L 794 531 
z
" transform="scale(0.015625)"/>
       </defs>
       <use xlink:href="#DejaVuSans-14"/>
       <use xlink:href="#DejaVuSans-13" transform="translate(63.625 0)"/>
      </g>
     </g>
    </g>
    <g id="xtick_3">
     <g id="line2d_3">
      <g>
       <use xlink:href="#m7abf299673" x="192.485975" y="254.265656" style="fill: #262626; stroke: #262626; stroke-width: 1.25"/>
      </g>
     </g>
     <g id="text_3">
      <!-- 20 -->
      <g style="fill: #262626" transform="translate(186.759725 270.603547) scale(0.09 -0.09)">
       <defs>
        <path id="DejaVuSans-15" d="M 1228 531 
L 3431 531 
L 3431 0 
L 469 0 
L 469 531 
Q 828 903 1448 1529 
Q 2069 2156 2228 2338 
Q 2531 2678 2651 2914 
Q 2772 3150 2772 3378 
Q 2772 3750 2511 3984 
Q 2250 4219 1831 4219 
Q 1534 4219 1204 4116 
Q 875 4013 500 3803 
L 500 4441 
Q 881 4594 1212 4672 
Q 1544 4750 1819 4750 
Q 2544 4750 2975 4387 
Q 3406 4025 3406 3419 
Q 3406 3131 3298 2873 
Q 3191 2616 2906 2266 
Q 2828 2175 2409 1742 
Q 1991 1309 1228 531 
z
" transform="scale(0.015625)"/>
       </defs>
       <use xlink:href="#DejaVuSans-15"/>
       <use xlink:href="#DejaVuSans-13" transform="translate(63.625 0)"/>
      </g>
     </g>
    </g>
    <g id="xtick_4">
     <g id="line2d_4">
      <g>
       <use xlink:href="#m7abf299673" x="250.171385" y="254.265656" style="fill: #262626; stroke: #262626; stroke-width: 1.25"/>
      </g>
     </g>
     <g id="text_4">
      <!-- 30 -->
      <g style="fill: #262626" transform="translate(244.445135 270.603547) scale(0.09 -0.09)">
       <defs>
        <path id="DejaVuSans-16" d="M 2597 2516 
Q 3050 2419 3304 2112 
Q 3559 1806 3559 1356 
Q 3559 666 3084 287 
Q 2609 -91 1734 -91 
Q 1441 -91 1130 -33 
Q 819 25 488 141 
L 488 750 
Q 750 597 1062 519 
Q 1375 441 1716 441 
Q 2309 441 2620 675 
Q 2931 909 2931 1356 
Q 2931 1769 2642 2001 
Q 2353 2234 1838 2234 
L 1294 2234 
L 1294 2753 
L 1863 2753 
Q 2328 2753 2575 2939 
Q 2822 3125 2822 3475 
Q 2822 3834 2567 4026 
Q 2313 4219 1838 4219 
Q 1578 4219 1281 4162 
Q 984 4106 628 3988 
L 628 4550 
Q 988 4650 1302 4700 
Q 1616 4750 1894 4750 
Q 2613 4750 3031 4423 
Q 3450 4097 3450 3541 
Q 3450 3153 3228 2886 
Q 3006 2619 2597 2516 
z
" transform="scale(0.015625)"/>
       </defs>
       <use xlink:href="#DejaVuSans-16"/>
       <use xlink:href="#DejaVuSans-13" transform="translate(63.625 0)"/>
      </g>
     </g>
    </g>
    <g id="xtick_5">
     <g id="line2d_5">
      <g>
       <use xlink:href="#m7abf299673" x="307.856795" y="254.265656" style="fill: #262626; stroke: #262626; stroke-width: 1.25"/>
      </g>
     </g>
     <g id="text_5">
      <!-- 40 -->
      <g style="fill: #262626" transform="translate(302.130545 270.603547) scale(0.09 -0.09)">
       <defs>
        <path id="DejaVuSans-17" d="M 2419 4116 
L 825 1625 
L 2419 1625 
L 2419 4116 
z
M 2253 4666 
L 3047 4666 
L 3047 1625 
L 3713 1625 
L 3713 1100 
L 3047 1100 
L 3047 0 
L 2419 0 
L 2419 1100 
L 313 1100 
L 313 1709 
L 2253 4666 
z
" transform="scale(0.015625)"/>
       </defs>
       <use xlink:href="#DejaVuSans-17"/>
       <use xlink:href="#DejaVuSans-13" transform="translate(63.625 0)"/>
      </g>
     </g>
    </g>
    <g id="xtick_6">
     <g id="line2d_6">
      <g>
       <use xlink:href="#m7abf299673" x="365.542205" y="254.265656" style="fill: #262626; stroke: #262626; stroke-width: 1.25"/>
      </g>
     </g>
     <g id="text_6">
      <!-- 50 -->
      <g style="fill: #262626" transform="translate(359.815955 270.603547) scale(0.09 -0.09)">
       <defs>
        <path id="DejaVuSans-18" d="M 691 4666 
L 3169 4666 
L 3169 4134 
L 1269 4134 
L 1269 2991 
Q 1406 3038 1543 3061 
Q 1681 3084 1819 3084 
Q 2600 3084 3056 2656 
Q 3513 2228 3513 1497 
Q 3513 744 3044 326 
Q 2575 -91 1722 -91 
Q 1428 -91 1123 -41 
Q 819 9 494 109 
L 494 744 
Q 775 591 1075 516 
Q 1375 441 1709 441 
Q 2250 441 2565 725 
Q 2881 1009 2881 1497 
Q 2881 1984 2565 2268 
Q 2250 2553 1709 2553 
Q 1456 2553 1204 2497 
Q 953 2441 691 2322 
L 691 4666 
z
" transform="scale(0.015625)"/>
       </defs>
       <use xlink:href="#DejaVuSans-18"/>
       <use xlink:href="#DejaVuSans-13" transform="translate(63.625 0)"/>
      </g>
     </g>
    </g>
    <g id="xtick_7">
     <g id="line2d_7">
      <g>
       <use xlink:href="#m7abf299673" x="423.227615" y="254.265656" style="fill: #262626; stroke: #262626; stroke-width: 1.25"/>
      </g>
     </g>
     <g id="text_7">
      <!-- 60 -->
      <g style="fill: #262626" transform="translate(417.501365 270.603547) scale(0.09 -0.09)">
       <defs>
        <path id="DejaVuSans-19" d="M 2113 2584 
Q 1688 2584 1439 2293 
Q 1191 2003 1191 1497 
Q 1191 994 1439 701 
Q 1688 409 2113 409 
Q 2538 409 2786 701 
Q 3034 994 3034 1497 
Q 3034 2003 2786 2293 
Q 2538 2584 2113 2584 
z
M 3366 4563 
L 3366 3988 
Q 3128 4100 2886 4159 
Q 2644 4219 2406 4219 
Q 1781 4219 1451 3797 
Q 1122 3375 1075 2522 
Q 1259 2794 1537 2939 
Q 1816 3084 2150 3084 
Q 2853 3084 3261 2657 
Q 3669 2231 3669 1497 
Q 3669 778 3244 343 
Q 2819 -91 2113 -91 
Q 1303 -91 875 529 
Q 447 1150 447 2328 
Q 447 3434 972 4092 
Q 1497 4750 2381 4750 
Q 2619 4750 2861 4703 
Q 3103 4656 3366 4563 
z
" transform="scale(0.015625)"/>
       </defs>
       <use xlink:href="#DejaVuSans-19"/>
       <use xlink:href="#DejaVuSans-13" transform="translate(63.625 0)"/>
      </g>
     </g>
    </g>
    <g id="xtick_8">
     <g id="line2d_8">
      <g>
       <use xlink:href="#m7abf299673" x="480.913025" y="254.265656" style="fill: #262626; stroke: #262626; stroke-width: 1.25"/>
      </g>
     </g>
     <g id="text_8">
      <!-- 70 -->
      <g style="fill: #262626" transform="translate(475.186775 270.603547) scale(0.09 -0.09)">
       <defs>
        <path id="DejaVuSans-1a" d="M 525 4666 
L 3525 4666 
L 3525 4397 
L 1831 0 
L 1172 0 
L 2766 4134 
L 525 4134 
L 525 4666 
z
" transform="scale(0.015625)"/>
       </defs>
       <use xlink:href="#DejaVuSans-1a"/>
       <use xlink:href="#DejaVuSans-13" transform="translate(63.625 0)"/>
      </g>
     </g>
    </g>
    <g id="text_9">
     <!-- Número de movimentos por processo -->
     <g style="fill: #262626" transform="translate(196.502734 284.764094) scale(0.1 -0.1)">
      <defs>
       <path id="DejaVuSans-31" d="M 628 4666 
L 1478 4666 
L 3547 763 
L 3547 4666 
L 4159 4666 
L 4159 0 
L 3309 0 
L 1241 3903 
L 1241 0 
L 628 0 
L 628 4666 
z
" transform="scale(0.015625)"/>
       <path id="DejaVuSans-bc" d="M 544 1381 
L 544 3500 
L 1119 3500 
L 1119 1403 
Q 1119 906 1312 657 
Q 1506 409 1894 409 
Q 2359 409 2629 706 
Q 2900 1003 2900 1516 
L 2900 3500 
L 3475 3500 
L 3475 0 
L 2900 0 
L 2900 538 
Q 2691 219 2414 64 
Q 2138 -91 1772 -91 
Q 1169 -91 856 284 
Q 544 659 544 1381 
z
M 1991 3584 
L 1991 3584 
z
M 2418 5119 
L 3040 5119 
L 2022 3944 
L 1543 3944 
L 2418 5119 
z
" transform="scale(0.015625)"/>
       <path id="DejaVuSans-50" d="M 3328 2828 
Q 3544 3216 3844 3400 
Q 4144 3584 4550 3584 
Q 5097 3584 5394 3201 
Q 5691 2819 5691 2113 
L 5691 0 
L 5113 0 
L 5113 2094 
Q 5113 2597 4934 2840 
Q 4756 3084 4391 3084 
Q 3944 3084 3684 2787 
Q 3425 2491 3425 1978 
L 3425 0 
L 2847 0 
L 2847 2094 
Q 2847 2600 2669 2842 
Q 2491 3084 2119 3084 
Q 1678 3084 1418 2786 
Q 1159 2488 1159 1978 
L 1159 0 
L 581 0 
L 581 3500 
L 1159 3500 
L 1159 2956 
Q 1356 3278 1631 3431 
Q 1906 3584 2284 3584 
Q 2666 3584 2933 3390 
Q 3200 3197 3328 2828 
z
" transform="scale(0.015625)"/>
       <path id="DejaVuSans-48" d="M 3597 1894 
L 3597 1613 
L 953 1613 
Q 991 1019 1311 708 
Q 1631 397 2203 397 
Q 2534 397 2845 478 
Q 3156 559 3463 722 
L 3463 178 
Q 3153 47 2828 -22 
Q 2503 -91 2169 -91 
Q 1331 -91 842 396 
Q 353 884 353 1716 
Q 353 2575 817 3079 
Q 1281 3584 2069 3584 
Q 2775 3584 3186 3129 
Q 3597 2675 3597 1894 
z
M 3022 2063 
Q 3016 2534 2758 2815 
Q 2500 3097 2075 3097 
Q 1594 3097 1305 2825 
Q 1016 2553 972 2059 
L 3022 2063 
z
" transform="scale(0.015625)"/>
       <path id="DejaVuSans-55" d="M 2631 2963 
Q 2534 3019 2420 3045 
Q 2306 3072 2169 3072 
Q 1681 3072 1420 2755 
Q 1159 2438 1159 1844 
L 1159 0 
L 581 0 
L 581 3500 
L 1159 3500 
L 1159 2956 
Q 1341 3275 1631 3429 
Q 1922 3584 2338 3584 
Q 2397 3584 2469 3576 
Q 2541 3569 2628 3553 
L 2631 2963 
z
" transform="scale(0.015625)"/>
       <path id="DejaVuSans-52" d="M 1959 3097 
Q 1497 3097 1228 2736 
Q 959 2375 959 1747 
Q 959 1119 1226 758 
Q 1494 397 1959 397 
Q 2419 397 2687 759 
Q 2956 1122 2956 1747 
Q 2956 2369 2687 2733 
Q 2419 3097 1959 3097 
z
M 1959 3584 
Q 2709 3584 3137 3096 
Q 3566 2609 3566 1747 
Q 3566 888 3137 398 
Q 2709 -91 1959 -91 
Q 1206 -91 779 398 
Q 353 888 353 1747 
Q 353 2609 779 3096 
Q 1206 3584 1959 3584 
z
" transform="scale(0.015625)"/>
       <path id="DejaVuSans-3" transform="scale(0.015625)"/>
       <path id="DejaVuSans-47" d="M 2906 2969 
L 2906 4863 
L 3481 4863 
L 3481 0 
L 2906 0 
L 2906 525 
Q 2725 213 2448 61 
Q 2172 -91 1784 -91 
Q 1150 -91 751 415 
Q 353 922 353 1747 
Q 353 2572 751 3078 
Q 1150 3584 1784 3584 
Q 2172 3584 2448 3432 
Q 2725 3281 2906 2969 
z
M 947 1747 
Q 947 1113 1208 752 
Q 1469 391 1925 391 
Q 2381 391 2643 752 
Q 2906 1113 2906 1747 
Q 2906 2381 2643 2742 
Q 2381 3103 1925 3103 
Q 1469 3103 1208 2742 
Q 947 2381 947 1747 
z
" transform="scale(0.015625)"/>
       <path id="DejaVuSans-59" d="M 191 3500 
L 800 3500 
L 1894 563 
L 2988 3500 
L 3597 3500 
L 2284 0 
L 1503 0 
L 191 3500 
z
" transform="scale(0.015625)"/>
       <path id="DejaVuSans-4c" d="M 603 3500 
L 1178 3500 
L 1178 0 
L 603 0 
L 603 3500 
z
M 603 4863 
L 1178 4863 
L 1178 4134 
L 603 4134 
L 603 4863 
z
" transform="scale(0.015625)"/>
       <path id="DejaVuSans-51" d="M 3513 2113 
L 3513 0 
L 2938 0 
L 2938 2094 
Q 2938 2591 2744 2837 
Q 2550 3084 2163 3084 
Q 1697 3084 1428 2787 
Q 1159 2491 1159 1978 
L 1159 0 
L 581 0 
L 581 3500 
L 1159 3500 
L 1159 2956 
Q 1366 3272 1645 3428 
Q 1925 3584 2291 3584 
Q 2894 3584 3203 3211 
Q 3513 2838 3513 2113 
z
" transform="scale(0.015625)"/>
       <path id="DejaVuSans-57" d="M 1172 4494 
L 1172 3500 
L 2356 3500 
L 2356 3053 
L 1172 3053 
L 1172 1153 
Q 1172 725 1289 603 
Q 1406 481 1766 481 
L 2356 481 
L 2356 0 
L 1766 0 
Q 1100 0 847 248 
Q 594 497 594 1153 
L 594 3053 
L 172 3053 
L 172 3500 
L 594 3500 
L 594 4494 
L 1172 4494 
z
" transform="scale(0.015625)"/>
       <path id="DejaVuSans-56" d="M 2834 3397 
L 2834 2853 
Q 2591 2978 2328 3040 
Q 2066 3103 1784 3103 
Q 1356 3103 1142 2972 
Q 928 2841 928 2578 
Q 928 2378 1081 2264 
Q 1234 2150 1697 2047 
L 1894 2003 
Q 2506 1872 2764 1633 
Q 3022 1394 3022 966 
Q 3022 478 2636 193 
Q 2250 -91 1575 -91 
Q 1294 -91 989 -36 
Q 684 19 347 128 
L 347 722 
Q 666 556 975 473 
Q 1284 391 1588 391 
Q 1994 391 2212 530 
Q 2431 669 2431 922 
Q 2431 1156 2273 1281 
Q 2116 1406 1581 1522 
L 1381 1569 
Q 847 1681 609 1914 
Q 372 2147 372 2553 
Q 372 3047 722 3315 
Q 1072 3584 1716 3584 
Q 2034 3584 2315 3537 
Q 2597 3491 2834 3397 
z
" transform="scale(0.015625)"/>
       <path id="DejaVuSans-53" d="M 1159 525 
L 1159 -1331 
L 581 -1331 
L 581 3500 
L 1159 3500 
L 1159 2969 
Q 1341 3281 1617 3432 
Q 1894 3584 2278 3584 
Q 2916 3584 3314 3078 
Q 3713 2572 3713 1747 
Q 3713 922 3314 415 
Q 2916 -91 2278 -91 
Q 1894 -91 1617 61 
Q 1341 213 1159 525 
z
M 3116 1747 
Q 3116 2381 2855 2742 
Q 2594 3103 2138 3103 
Q 1681 3103 1420 2742 
Q 1159 2381 1159 1747 
Q 1159 1113 1420 752 
Q 1681 391 2138 391 
Q 2594 391 2855 752 
Q 3116 1113 3116 1747 
z
" transform="scale(0.015625)"/>
       <path id="DejaVuSans-46" d="M 3122 3366 
L 3122 2828 
Q 2878 2963 2633 3030 
Q 2388 3097 2138 3097 
Q 1578 3097 1268 2742 
Q 959 2388 959 1747 
Q 959 1106 1268 751 
Q 1578 397 2138 397 
Q 2388 397 2633 464 
Q 2878 531 3122 666 
L 3122 134 
Q 2881 22 2623 -34 
Q 2366 -91 2075 -91 
Q 1284 -91 818 406 
Q 353 903 353 1747 
Q 353 2603 823 3093 
Q 1294 3584 2113 3584 
Q 2378 3584 2631 3529 
Q 2884 3475 3122 3366 
z
" transform="scale(0.015625)"/>
      </defs>
      <use xlink:href="#DejaVuSans-31"/>
      <use xlink:href="#DejaVuSans-bc" transform="translate(74.8125 0)"/>
      <use xlink:href="#DejaVuSans-50" transform="translate(138.1875 0)"/>
      <use xlink:href="#DejaVuSans-48" transform="translate(235.59375 0)"/>
      <use xlink:href="#DejaVuSans-55" transform="translate(297.125 0)"/>
      <use xlink:href="#DejaVuSans-52" transform="translate(336.03125 0)"/>
      <use xlink:href="#DejaVuSans-3" transform="translate(397.21875 0)"/>
      <use xlink:href="#DejaVuSans-47" transform="translate(429 0)"/>
      <use xlink:href="#DejaVuSans-48" transform="translate(492.484375 0)"/>
      <use xlink:href="#DejaVuSans-3" transform="translate(554.015625 0)"/>
      <use xlink:href="#DejaVuSans-50" transform="translate(585.796875 0)"/>
      <use xlink:href="#DejaVuSans-52" transform="translate(683.203125 0)"/>
      <use xlink:href="#DejaVuSans-59" transform="translate(744.390625 0)"/>
      <use xlink:href="#DejaVuSans-4c" transform="translate(803.578125 0)"/>
      <use xlink:href="#DejaVuSans-50" transform="translate(831.359375 0)"/>
      <use xlink:href="#DejaVuSans-48" transform="translate(928.765625 0)"/>
      <use xlink:href="#DejaVuSans-51" transform="translate(990.296875 0)"/>
      <use xlink:href="#DejaVuSans-57" transform="translate(1053.671875 0)"/>
      <use xlink:href="#DejaVuSans-52" transform="translate(1092.875 0)"/>
      <use xlink:href="#DejaVuSans-56" transform="translate(1154.0625 0)"/>
      <use xlink:href="#DejaVuSans-3" transform="translate(1206.15625 0)"/>
      <use xlink:href="#DejaVuSans-53" transform="translate(1237.9375 0)"/>
      <use xlink:href="#DejaVuSans-52" transform="translate(1301.421875 0)"/>
      <use xlink:href="#DejaVuSans-55" transform="translate(1362.609375 0)"/>
      <use xlink:href="#DejaVuSans-3" transform="translate(1403.71875 0)"/>
      <use xlink:href="#DejaVuSans-53" transform="translate(1435.5 0)"/>
      <use xlink:href="#DejaVuSans-55" transform="translate(1498.984375 0)"/>
      <use xlink:href="#DejaVuSans-52" transform="translate(1537.890625 0)"/>
      <use xlink:href="#DejaVuSans-46" transform="translate(1599.078125 0)"/>
      <use xlink:href="#DejaVuSans-48" transform="translate(1654.0625 0)"/>
      <use xlink:href="#DejaVuSans-56" transform="translate(1715.59375 0)"/>
      <use xlink:href="#DejaVuSans-56" transform="translate(1767.6875 0)"/>
      <use xlink:href="#DejaVuSans-52" transform="translate(1819.78125 0)"/>
     </g>
    </g>
   </g>
   <g id="matplotlib.axis_2">
    <g id="ytick_1">
     <g id="line2d_9">
      <defs>
       <path id="mbd93d05ed9" d="M 0 0 
L -6 0 
" style="stroke: #262626; stroke-width: 1.25"/>
      </defs>
      <g>
       <use xlink:href="#mbd93d05ed9" x="68.462344" y="254.265656" style="fill: #262626; stroke: #262626; stroke-width: 1.25"/>
      </g>
     </g>
     <g id="text_10">
      <!-- 0 -->
      <g style="fill: #262626" transform="translate(53.236094 257.684602) scale(0.09 -0.09)">
       <use xlink:href="#DejaVuSans-13"/>
      </g>
     </g>
    </g>
    <g id="ytick_2">
     <g id="line2d_10">
      <g>
       <use xlink:href="#mbd93d05ed9" x="68.462344" y="216.663029" style="fill: #262626; stroke: #262626; stroke-width: 1.25"/>
      </g>
     </g>
     <g id="text_11">
      <!-- 200 -->
      <g style="fill: #262626" transform="translate(41.783594 220.081974) scale(0.09 -0.09)">
       <use xlink:href="#DejaVuSans-15"/>
       <use xlink:href="#DejaVuSans-13" transform="translate(63.625 0)"/>
       <use xlink:href="#DejaVuSans-13" transform="translate(127.25 0)"/>
      </g>
     </g>
    </g>
    <g id="ytick_3">
     <g id="line2d_11">
      <g>
       <use xlink:href="#mbd93d05ed9" x="68.462344" y="179.060401" style="fill: #262626; stroke: #262626; stroke-width: 1.25"/>
      </g>
     </g>
     <g id="text_12">
      <!-- 400 -->
      <g style="fill: #262626" transform="translate(41.783594 182.479347) scale(0.09 -0.09)">
       <use xlink:href="#DejaVuSans-17"/>
       <use xlink:href="#DejaVuSans-13" transform="translate(63.625 0)"/>
       <use xlink:href="#DejaVuSans-13" transform="translate(127.25 0)"/>
      </g>
     </g>
    </g>
    <g id="ytick_4">
     <g id="line2d_12">
      <g>
       <use xlink:href="#mbd93d05ed9" x="68.462344" y="141.457774" style="fill: #262626; stroke: #262626; stroke-width: 1.25"/>
      </g>
     </g>
     <g id="text_13">
      <!-- 600 -->
      <g style="fill: #262626" transform="translate(41.783594 144.876719) scale(0.09 -0.09)">
       <use xlink:href="#DejaVuSans-19"/>
       <use xlink:href="#DejaVuSans-13" transform="translate(63.625 0)"/>
       <use xlink:href="#DejaVuSans-13" transform="translate(127.25 0)"/>
      </g>
     </g>
    </g>
    <g id="ytick_5">
     <g id="line2d_13">
      <g>
       <use xlink:href="#mbd93d05ed9" x="68.462344" y="103.855146" style="fill: #262626; stroke: #262626; stroke-width: 1.25"/>
      </g>
     </g>
     <g id="text_14">
      <!-- 800 -->
      <g style="fill: #262626" transform="translate(41.783594 107.274092) scale(0.09 -0.09)">
       <defs>
        <path id="DejaVuSans-1b" d="M 2034 2216 
Q 1584 2216 1326 1975 
Q 1069 1734 1069 1313 
Q 1069 891 1326 650 
Q 1584 409 2034 409 
Q 2484 409 2743 651 
Q 3003 894 3003 1313 
Q 3003 1734 2745 1975 
Q 2488 2216 2034 2216 
z
M 1403 2484 
Q 997 2584 770 2862 
Q 544 3141 544 3541 
Q 544 4100 942 4425 
Q 1341 4750 2034 4750 
Q 2731 4750 3128 4425 
Q 3525 4100 3525 3541 
Q 3525 3141 3298 2862 
Q 3072 2584 2669 2484 
Q 3125 2378 3379 2068 
Q 3634 1759 3634 1313 
Q 3634 634 3220 271 
Q 2806 -91 2034 -91 
Q 1263 -91 848 271 
Q 434 634 434 1313 
Q 434 1759 690 2068 
Q 947 2378 1403 2484 
z
M 1172 3481 
Q 1172 3119 1398 2916 
Q 1625 2713 2034 2713 
Q 2441 2713 2670 2916 
Q 2900 3119 2900 3481 
Q 2900 3844 2670 4047 
Q 2441 4250 2034 4250 
Q 1625 4250 1398 4047 
Q 1172 3844 1172 3481 
z
" transform="scale(0.015625)"/>
       </defs>
       <use xlink:href="#DejaVuSans-1b"/>
       <use xlink:href="#DejaVuSans-13" transform="translate(63.625 0)"/>
       <use xlink:href="#DejaVuSans-13" transform="translate(127.25 0)"/>
      </g>
     </g>
    </g>
    <g id="ytick_6">
     <g id="line2d_14">
      <g>
       <use xlink:href="#mbd93d05ed9" x="68.462344" y="66.252519" style="fill: #262626; stroke: #262626; stroke-width: 1.25"/>
      </g>
     </g>
     <g id="text_15">
      <!-- 1000 -->
      <g style="fill: #262626" transform="translate(36.057344 69.671464) scale(0.09 -0.09)">
       <use xlink:href="#DejaVuSans-14"/>
       <use xlink:href="#DejaVuSans-13" transform="translate(63.625 0)"/>
       <use xlink:href="#DejaVuSans-13" transform="translate(127.25 0)"/>
       <use xlink:href="#DejaVuSans-13" transform="translate(190.875 0)"/>
      </g>
     </g>
    </g>
    <g id="text_16">
     <!-- Frequência -->
     <g style="fill: #262626" transform="translate(29.655 178.145047) rotate(-90) scale(0.1 -0.1)">
      <defs>
       <path id="DejaVuSans-29" d="M 628 4666 
L 3309 4666 
L 3309 4134 
L 1259 4134 
L 1259 2759 
L 3109 2759 
L 3109 2228 
L 1259 2228 
L 1259 0 
L 628 0 
L 628 4666 
z
" transform="scale(0.015625)"/>
       <path id="DejaVuSans-54" d="M 947 1747 
Q 947 1113 1208 752 
Q 1469 391 1925 391 
Q 2381 391 2643 752 
Q 2906 1113 2906 1747 
Q 2906 2381 2643 2742 
Q 2381 3103 1925 3103 
Q 1469 3103 1208 2742 
Q 947 2381 947 1747 
z
M 2906 525 
Q 2725 213 2448 61 
Q 2172 -91 1784 -91 
Q 1150 -91 751 415 
Q 353 922 353 1747 
Q 353 2572 751 3078 
Q 1150 3584 1784 3584 
Q 2172 3584 2448 3432 
Q 2725 3281 2906 2969 
L 2906 3500 
L 3481 3500 
L 3481 -1331 
L 2906 -1331 
L 2906 525 
z
" transform="scale(0.015625)"/>
       <path id="DejaVuSans-58" d="M 544 1381 
L 544 3500 
L 1119 3500 
L 1119 1403 
Q 1119 906 1312 657 
Q 1506 409 1894 409 
Q 2359 409 2629 706 
Q 2900 1003 2900 1516 
L 2900 3500 
L 3475 3500 
L 3475 0 
L 2900 0 
L 2900 538 
Q 2691 219 2414 64 
Q 2138 -91 1772 -91 
Q 1169 -91 856 284 
Q 544 659 544 1381 
z
M 1991 3584 
L 1991 3584 
z
" transform="scale(0.015625)"/>
       <path id="DejaVuSans-ac" d="M 3597 1894 
L 3597 1613 
L 953 1613 
Q 991 1019 1311 708 
Q 1631 397 2203 397 
Q 2534 397 2845 478 
Q 3156 559 3463 722 
L 3463 178 
Q 3153 47 2828 -22 
Q 2503 -91 2169 -91 
Q 1331 -91 842 396 
Q 353 884 353 1716 
Q 353 2575 817 3079 
Q 1281 3584 2069 3584 
Q 2775 3584 3186 3129 
Q 3597 2675 3597 1894 
z
M 3022 2063 
Q 3016 2534 2758 2815 
Q 2500 3097 2075 3097 
Q 1594 3097 1305 2825 
Q 1016 2553 972 2059 
L 3022 2063 
z
M 1803 5119 
L 2265 5119 
L 3031 3944 
L 2597 3944 
L 2034 4709 
L 1472 3944 
L 1037 3944 
L 1803 5119 
z
" transform="scale(0.015625)"/>
       <path id="DejaVuSans-44" d="M 2194 1759 
Q 1497 1759 1228 1600 
Q 959 1441 959 1056 
Q 959 750 1161 570 
Q 1363 391 1709 391 
Q 2188 391 2477 730 
Q 2766 1069 2766 1631 
L 2766 1759 
L 2194 1759 
z
M 3341 1997 
L 3341 0 
L 2766 0 
L 2766 531 
Q 2569 213 2275 61 
Q 1981 -91 1556 -91 
Q 1019 -91 701 211 
Q 384 513 384 1019 
Q 384 1609 779 1909 
Q 1175 2209 1959 2209 
L 2766 2209 
L 2766 2266 
Q 2766 2663 2505 2880 
Q 2244 3097 1772 3097 
Q 1472 3097 1187 3025 
Q 903 2953 641 2809 
L 641 3341 
Q 956 3463 1253 3523 
Q 1550 3584 1831 3584 
Q 2591 3584 2966 3190 
Q 3341 2797 3341 1997 
z
" transform="scale(0.015625)"/>
      </defs>
      <use xlink:href="#DejaVuSans-29"/>
      <use xlink:href="#DejaVuSans-55" transform="translate(50.234375 0)"/>
      <use xlink:href="#DejaVuSans-48" transform="translate(89.140625 0)"/>
      <use xlink:href="#DejaVuSans-54" transform="translate(150.671875 0)"/>
      <use xlink:href="#DejaVuSans-58" transform="translate(214.15625 0)"/>
      <use xlink:href="#DejaVuSans-ac" transform="translate(277.53125 0)"/>
      <use xlink:href="#DejaVuSans-51" transform="translate(339.0625 0)"/>
      <use xlink:href="#DejaVuSans-46" transform="translate(402.4375 0)"/>
      <use xlink:href="#DejaVuSans-4c" transform="translate(457.421875 0)"/>
      <use xlink:href="#DejaVuSans-44" transform="translate(485.203125 0)"/>
     </g>
    </g>
   </g>
   <g id="patch_3">
    <path d="M 88.652237 254.265656 
L 98.747184 254.265656 
L 98.747184 232.644145 
L 88.652237 232.644145 
z
" clip-path="url(#pb92d6c0dca)" style="fill: #0173b2; fill-opacity: 0.75; stroke: #ffffff; stroke-width: 0.913091; stroke-linejoin: miter"/>
   </g>
   <g id="patch_4">
    <path d="M 98.747184 254.265656 
L 108.842131 254.265656 
L 108.842131 196.733636 
L 98.747184 196.733636 
z
" clip-path="url(#pb92d6c0dca)" style="fill: #0173b2; fill-opacity: 0.75; stroke: #ffffff; stroke-width: 0.913091; stroke-linejoin: miter"/>
   </g>
   <g id="patch_5">
    <path d="M 108.842131 254.265656 
L 118.937077 254.265656 
L 118.937077 57.227888 
L 108.842131 57.227888 
z
" clip-path="url(#pb92d6c0dca)" style="fill: #0173b2; fill-opacity: 0.75; stroke: #ffffff; stroke-width: 0.913091; stroke-linejoin: miter"/>
   </g>
   <g id="patch_6">
    <path d="M 118.937077 254.265656 
L 129.032024 254.265656 
L 129.032024 149.354326 
L 118.937077 149.354326 
z
" clip-path="url(#pb92d6c0dca)" style="fill: #0173b2; fill-opacity: 0.75; stroke: #ffffff; stroke-width: 0.913091; stroke-linejoin: miter"/>
   </g>
   <g id="patch_7">
    <path d="M 129.032024 254.265656 
L 139.126971 254.265656 
L 139.126971 70.576821 
L 129.032024 70.576821 
z
" clip-path="url(#pb92d6c0dca)" style="fill: #0173b2; fill-opacity: 0.75; stroke: #ffffff; stroke-width: 0.913091; stroke-linejoin: miter"/>
   </g>
   <g id="patch_8">
    <path d="M 139.126971 254.265656 
L 149.221918 254.265656 
L 149.221918 76.593242 
L 139.126971 76.593242 
z
" clip-path="url(#pb92d6c0dca)" style="fill: #0173b2; fill-opacity: 0.75; stroke: #ffffff; stroke-width: 0.913091; stroke-linejoin: miter"/>
   </g>
   <g id="patch_9">
    <path d="M 149.221918 254.265656 
L 159.316864 254.265656 
L 159.316864 148.790286 
L 149.221918 148.790286 
z
" clip-path="url(#pb92d6c0dca)" style="fill: #0173b2; fill-opacity: 0.75; stroke: #ffffff; stroke-width: 0.913091; stroke-linejoin: miter"/>
   </g>
   <g id="patch_10">
    <path d="M 159.316864 254.265656 
L 169.411811 254.265656 
L 169.411811 210.834622 
L 159.316864 210.834622 
z
" clip-path="url(#pb92d6c0dca)" style="fill: #0173b2; fill-opacity: 0.75; stroke: #ffffff; stroke-width: 0.913091; stroke-linejoin: miter"/>
   </g>
   <g id="patch_11">
    <path d="M 169.411811 254.265656 
L 179.506758 254.265656 
L 179.506758 188.461058 
L 169.411811 188.461058 
z
" clip-path="url(#pb92d6c0dca)" style="fill: #0173b2; fill-opacity: 0.75; stroke: #ffffff; stroke-width: 0.913091; stroke-linejoin: miter"/>
   </g>
   <g id="patch_12">
    <path d="M 179.506758 254.265656 
L 189.601705 254.265656 
L 189.601705 200.681912 
L 179.506758 200.681912 
z
" clip-path="url(#pb92d6c0dca)" style="fill: #0173b2; fill-opacity: 0.75; stroke: #ffffff; stroke-width: 0.913091; stroke-linejoin: miter"/>
   </g>
   <g id="patch_13">
    <path d="M 189.601705 254.265656 
L 199.696651 254.265656 
L 199.696651 217.791108 
L 189.601705 217.791108 
z
" clip-path="url(#pb92d6c0dca)" style="fill: #0173b2; fill-opacity: 0.75; stroke: #ffffff; stroke-width: 0.913091; stroke-linejoin: miter"/>
   </g>
   <g id="patch_14">
    <path d="M 199.696651 254.265656 
L 209.791598 254.265656 
L 209.791598 240.916724 
L 199.696651 240.916724 
z
" clip-path="url(#pb92d6c0dca)" style="fill: #0173b2; fill-opacity: 0.75; stroke: #ffffff; stroke-width: 0.913091; stroke-linejoin: miter"/>
   </g>
   <g id="patch_15">
    <path d="M 209.791598 254.265656 
L 219.886545 254.265656 
L 219.886545 226.439712 
L 209.791598 226.439712 
z
" clip-path="url(#pb92d6c0dca)" style="fill: #0173b2; fill-opacity: 0.75; stroke: #ffffff; stroke-width: 0.913091; stroke-linejoin: miter"/>
   </g>
   <g id="patch_16">
    <path d="M 219.886545 254.265656 
L 229.981491 254.265656 
L 229.981491 231.14004 
L 219.886545 231.14004 
z
" clip-path="url(#pb92d6c0dca)" style="fill: #0173b2; fill-opacity: 0.75; stroke: #ffffff; stroke-width: 0.913091; stroke-linejoin: miter"/>
   </g>
   <g id="patch_17">
    <path d="M 229.981491 254.265656 
L 240.076438 254.265656 
L 240.076438 236.968448 
L 229.981491 236.968448 
z
" clip-path="url(#pb92d6c0dca)" style="fill: #0173b2; fill-opacity: 0.75; stroke: #ffffff; stroke-width: 0.913091; stroke-linejoin: miter"/>
   </g>
   <g id="patch_18">
    <path d="M 240.076438 254.265656 
L 250.171385 254.265656 
L 250.171385 248.061223 
L 240.076438 248.061223 
z
" clip-path="url(#pb92d6c0dca)" style="fill: #0173b2; fill-opacity: 0.75; stroke: #ffffff; stroke-width: 0.913091; stroke-linejoin: miter"/>
   </g>
   <g id="patch_19">
    <path d="M 250.171385 254.265656 
L 260.266332 254.265656 
L 260.266332 240.164671 
L 250.171385 240.164671 
z
" clip-path="url(#pb92d6c0dca)" style="fill: #0173b2; fill-opacity: 0.75; stroke: #ffffff; stroke-width: 0.913091; stroke-linejoin: miter"/>
   </g>
   <g id="patch_20">
    <path d="M 260.266332 254.265656 
L 270.361278 254.265656 
L 270.361278 248.061223 
L 260.266332 248.061223 
z
" clip-path="url(#pb92d6c0dca)" style="fill: #0173b2; fill-opacity: 0.75; stroke: #ffffff; stroke-width: 0.913091; stroke-linejoin: miter"/>
   </g>
   <g id="patch_21">
    <path d="M 270.361278 254.265656 
L 280.456225 254.265656 
L 280.456225 245.993078 
L 270.361278 245.993078 
z
" clip-path="url(#pb92d6c0dca)" style="fill: #0173b2; fill-opacity: 0.75; stroke: #ffffff; stroke-width: 0.913091; stroke-linejoin: miter"/>
   </g>
   <g id="patch_22">
    <path d="M 280.456225 254.265656 
L 290.551172 254.265656 
L 290.551172 251.445459 
L 280.456225 251.445459 
z
" clip-path="url(#pb92d6c0dca)" style="fill: #0173b2; fill-opacity: 0.75; stroke: #ffffff; stroke-width: 0.913091; stroke-linejoin: miter"/>
   </g>
   <g id="patch_23">
    <path d="M 290.551172 254.265656 
L 300.646119 254.265656 
L 300.646119 251.257446 
L 290.551172 251.257446 
z
" clip-path="url(#pb92d6c0dca)" style="fill: #0173b2; fill-opacity: 0.75; stroke: #ffffff; stroke-width: 0.913091; stroke-linejoin: miter"/>
   </g>
   <g id="patch_24">
    <path d="M 300.646119 254.265656 
L 310.741065 254.265656 
L 310.741065 250.88142 
L 300.646119 250.88142 
z
" clip-path="url(#pb92d6c0dca)" style="fill: #0173b2; fill-opacity: 0.75; stroke: #ffffff; stroke-width: 0.913091; stroke-linejoin: miter"/>
   </g>
   <g id="patch_25">
    <path d="M 310.741065 254.265656 
L 320.836012 254.265656 
L 320.836012 251.257446 
L 310.741065 251.257446 
z
" clip-path="url(#pb92d6c0dca)" style="fill: #0173b2; fill-opacity: 0.75; stroke: #ffffff; stroke-width: 0.913091; stroke-linejoin: miter"/>
   </g>
   <g id="patch_26">
    <path d="M 320.836012 254.265656 
L 330.930959 254.265656 
L 330.930959 253.325591 
L 320.836012 253.325591 
z
" clip-path="url(#pb92d6c0dca)" style="fill: #0173b2; fill-opacity: 0.75; stroke: #ffffff; stroke-width: 0.913091; stroke-linejoin: miter"/>
   </g>
   <g id="patch_27">
    <path d="M 330.930959 254.265656 
L 341.025906 254.265656 
L 341.025906 252.761551 
L 330.930959 252.761551 
z
" clip-path="url(#pb92d6c0dca)" style="fill: #0173b2; fill-opacity: 0.75; stroke: #ffffff; stroke-width: 0.913091; stroke-linejoin: miter"/>
   </g>
   <g id="patch_28">
    <path d="M 341.025906 254.265656 
L 351.120852 254.265656 
L 351.120852 252.761551 
L 341.025906 252.761551 
z
" clip-path="url(#pb92d6c0dca)" style="fill: #0173b2; fill-opacity: 0.75; stroke: #ffffff; stroke-width: 0.913091; stroke-linejoin: miter"/>
   </g>
   <g id="patch_29">
    <path d="M 351.120852 254.265656 
L 361.215799 254.265656 
L 361.215799 253.325591 
L 351.120852 253.325591 
z
" clip-path="url(#pb92d6c0dca)" style="fill: #0173b2; fill-opacity: 0.75; stroke: #ffffff; stroke-width: 0.913091; stroke-linejoin: miter"/>
   </g>
   <g id="patch_30">
    <path d="M 361.215799 254.265656 
L 371.310746 254.265656 
L 371.310746 253.513604 
L 361.215799 253.513604 
z
" clip-path="url(#pb92d6c0dca)" style="fill: #0173b2; fill-opacity: 0.75; stroke: #ffffff; stroke-width: 0.913091; stroke-linejoin: miter"/>
   </g>
   <g id="patch_31">
    <path d="M 371.310746 254.265656 
L 381.405692 254.265656 
L 381.405692 253.513604 
L 371.310746 253.513604 
z
" clip-path="url(#pb92d6c0dca)" style="fill: #0173b2; fill-opacity: 0.75; stroke: #ffffff; stroke-width: 0.913091; stroke-linejoin: miter"/>
   </g>
   <g id="patch_32">
    <path d="M 381.405692 254.265656 
L 391.500639 254.265656 
L 391.500639 254.077643 
L 381.405692 254.077643 
z
" clip-path="url(#pb92d6c0dca)" style="fill: #0173b2; fill-opacity: 0.75; stroke: #ffffff; stroke-width: 0.913091; stroke-linejoin: miter"/>
   </g>
   <g id="patch_33">
    <path d="M 391.500639 254.265656 
L 401.595586 254.265656 
L 401.595586 253.88963 
L 391.500639 253.88963 
z
" clip-path="url(#pb92d6c0dca)" style="fill: #0173b2; fill-opacity: 0.75; stroke: #ffffff; stroke-width: 0.913091; stroke-linejoin: miter"/>
   </g>
   <g id="patch_34">
    <path d="M 401.595586 254.265656 
L 411.690533 254.265656 
L 411.690533 254.077643 
L 401.595586 254.077643 
z
" clip-path="url(#pb92d6c0dca)" style="fill: #0173b2; fill-opacity: 0.75; stroke: #ffffff; stroke-width: 0.913091; stroke-linejoin: miter"/>
   </g>
   <g id="patch_35">
    <path d="M 411.690533 254.265656 
L 421.785479 254.265656 
L 421.785479 254.265656 
L 411.690533 254.265656 
z
" clip-path="url(#pb92d6c0dca)" style="fill: #0173b2; fill-opacity: 0.75; stroke: #ffffff; stroke-width: 0.913091; stroke-linejoin: miter"/>
   </g>
   <g id="patch_36">
    <path d="M 421.785479 254.265656 
L 431.880426 254.265656 
L 431.880426 253.701617 
L 421.785479 253.701617 
z
" clip-path="url(#pb92d6c0dca)" style="fill: #0173b2; fill-opacity: 0.75; stroke: #ffffff; stroke-width: 0.913091; stroke-linejoin: miter"/>
   </g>
   <g id="patch_37">
    <path d="M 431.880426 254.265656 
L 441.975373 254.265656 
L 441.975373 254.265656 
L 431.880426 254.265656 
z
" clip-path="url(#pb92d6c0dca)" style="fill: #0173b2; fill-opacity: 0.75; stroke: #ffffff; stroke-width: 0.913091; stroke-linejoin: miter"/>
   </g>
   <g id="patch_38">
    <path d="M 441.975373 254.265656 
L 452.07032 254.265656 
L 452.07032 254.265656 
L 441.975373 254.265656 
z
" clip-path="url(#pb92d6c0dca)" style="fill: #0173b2; fill-opacity: 0.75; stroke: #ffffff; stroke-width: 0.913091; stroke-linejoin: miter"/>
   </g>
   <g id="patch_39">
    <path d="M 452.07032 254.265656 
L 462.165266 254.265656 
L 462.165266 253.88963 
L 452.07032 253.88963 
z
" clip-path="url(#pb92d6c0dca)" style="fill: #0173b2; fill-opacity: 0.75; stroke: #ffffff; stroke-width: 0.913091; stroke-linejoin: miter"/>
   </g>
   <g id="patch_40">
    <path d="M 462.165266 254.265656 
L 472.260213 254.265656 
L 472.260213 254.077643 
L 462.165266 254.077643 
z
" clip-path="url(#pb92d6c0dca)" style="fill: #0173b2; fill-opacity: 0.75; stroke: #ffffff; stroke-width: 0.913091; stroke-linejoin: miter"/>
   </g>
   <g id="patch_41">
    <path d="M 472.260213 254.265656 
L 482.35516 254.265656 
L 482.35516 254.077643 
L 472.260213 254.077643 
z
" clip-path="url(#pb92d6c0dca)" style="fill: #0173b2; fill-opacity: 0.75; stroke: #ffffff; stroke-width: 0.913091; stroke-linejoin: miter"/>
   </g>
   <g id="patch_42">
    <path d="M 482.35516 254.265656 
L 492.450107 254.265656 
L 492.450107 254.077643 
L 482.35516 254.077643 
z
" clip-path="url(#pb92d6c0dca)" style="fill: #0173b2; fill-opacity: 0.75; stroke: #ffffff; stroke-width: 0.913091; stroke-linejoin: miter"/>
   </g>
   <g id="line2d_15">
    <path d="M 140.569106 254.265656 
L 140.569106 47.376 
" clip-path="url(#pb92d6c0dca)" style="fill: none; stroke-dasharray: 3.7,1.6; stroke-dashoffset: 0; stroke: #000000"/>
   </g>
   <g id="line2d_16">
    <path d="M 105.95786 254.265656 
L 105.95786 47.376 
" clip-path="url(#pb92d6c0dca)" style="fill: none; stroke-dasharray: 1,1.65; stroke-dashoffset: 0; stroke: #808080"/>
   </g>
   <g id="patch_43">
    <path d="M 68.462344 254.265656 
L 68.462344 47.376 
" style="fill: none; stroke: #262626; stroke-width: 1.25; stroke-linejoin: miter; stroke-linecap: square"/>
   </g>
   <g id="patch_44">
    <path d="M 68.462344 254.265656 
L 512.64 254.265656 
" style="fill: none; stroke: #262626; stroke-width: 1.25; stroke-linejoin: miter; stroke-linecap: square"/>
   </g>
   <g id="legend_1">
    <g id="line2d_17">
     <path d="M 441.088594 59.164594 
L 450.088594 59.164594 
L 459.088594 59.164594 
" style="fill: none; stroke-dasharray: 3.7,1.6; stroke-dashoffset: 0; stroke: #000000"/>
    </g>
    <g id="text_17">
     <!-- Mediana -->
     <g style="fill: #262626" transform="translate(466.288594 62.314594) scale(0.09 -0.09)">
      <defs>
       <path id="DejaVuSans-30" d="M 628 4666 
L 1569 4666 
L 2759 1491 
L 3956 4666 
L 4897 4666 
L 4897 0 
L 4281 0 
L 4281 4097 
L 3078 897 
L 2444 897 
L 1241 4097 
L 1241 0 
L 628 0 
L 628 4666 
z
" transform="scale(0.015625)"/>
      </defs>
      <use xlink:href="#DejaVuSans-30"/>
      <use xlink:href="#DejaVuSans-48" transform="translate(86.28125 0)"/>
      <use xlink:href="#DejaVuSans-47" transform="translate(147.8125 0)"/>
      <use xlink:href="#DejaVuSans-4c" transform="translate(211.296875 0)"/>
      <use xlink:href="#DejaVuSans-44" transform="translate(239.078125 0)"/>
      <use xlink:href="#DejaVuSans-51" transform="translate(300.359375 0)"/>
      <use xlink:href="#DejaVuSans-44" transform="translate(363.734375 0)"/>
     </g>
    </g>
    <g id="line2d_18">
     <path d="M 441.088594 72.665297 
L 450.088594 72.665297 
L 459.088594 72.665297 
" style="fill: none; stroke-dasharray: 1,1.65; stroke-dashoffset: 0; stroke: #808080"/>
    </g>
    <g id="text_18">
     <!-- P5 -->
     <g style="fill: #262626" transform="translate(466.288594 75.815297) scale(0.09 -0.09)">
      <defs>
       <path id="DejaVuSans-33" d="M 1259 4147 
L 1259 2394 
L 2053 2394 
Q 2494 2394 2734 2622 
Q 2975 2850 2975 3272 
Q 2975 3691 2734 3919 
Q 2494 4147 2053 4147 
L 1259 4147 
z
M 628 4666 
L 2053 4666 
Q 2838 4666 3239 4311 
Q 3641 3956 3641 3272 
Q 3641 2581 3239 2228 
Q 2838 1875 2053 1875 
L 1259 1875 
L 1259 0 
L 628 0 
L 628 4666 
z
" transform="scale(0.015625)"/>
      </defs>
      <use xlink:href="#DejaVuSans-33"/>
      <use xlink:href="#DejaVuSans-18" transform="translate(60.296875 0)"/>
     </g>
    </g>
   </g>
  </g>
  <g id="text_19">
   <!-- Figura 1 -->
   <g style="fill: #262626" transform="translate(7.2 15.558281) scale(0.11 -0.11)">
    <defs>
     <path id="DejaVuSans-Bold-29" d="M 588 4666 
L 3834 4666 
L 3834 3756 
L 1791 3756 
L 1791 2888 
L 3713 2888 
L 3713 1978 
L 1791 1978 
L 1791 0 
L 588 0 
L 588 4666 
z
" transform="scale(0.015625)"/>
     <path id="DejaVuSans-Bold-4c" d="M 538 3500 
L 1656 3500 
L 1656 0 
L 538 0 
L 538 3500 
z
M 538 4863 
L 1656 4863 
L 1656 3950 
L 538 3950 
L 538 4863 
z
" transform="scale(0.015625)"/>
     <path id="DejaVuSans-Bold-4a" d="M 2919 594 
Q 2688 288 2409 144 
Q 2131 0 1766 0 
Q 1125 0 706 504 
Q 288 1009 288 1791 
Q 288 2575 706 3076 
Q 1125 3578 1766 3578 
Q 2131 3578 2409 3434 
Q 2688 3291 2919 2981 
L 2919 3500 
L 4044 3500 
L 4044 353 
Q 4044 -491 3511 -936 
Q 2978 -1381 1966 -1381 
Q 1638 -1381 1331 -1331 
Q 1025 -1281 716 -1178 
L 716 -306 
Q 1009 -475 1290 -558 
Q 1572 -641 1856 -641 
Q 2406 -641 2662 -400 
Q 2919 -159 2919 353 
L 2919 594 
z
M 2181 2772 
Q 1834 2772 1640 2515 
Q 1447 2259 1447 1791 
Q 1447 1309 1634 1061 
Q 1822 813 2181 813 
Q 2531 813 2725 1069 
Q 2919 1325 2919 1791 
Q 2919 2259 2725 2515 
Q 2531 2772 2181 2772 
z
" transform="scale(0.015625)"/>
     <path id="DejaVuSans-Bold-58" d="M 500 1363 
L 500 3500 
L 1625 3500 
L 1625 3150 
Q 1625 2866 1622 2436 
Q 1619 2006 1619 1863 
Q 1619 1441 1641 1255 
Q 1663 1069 1716 984 
Q 1784 875 1895 815 
Q 2006 756 2150 756 
Q 2500 756 2700 1025 
Q 2900 1294 2900 1772 
L 2900 3500 
L 4019 3500 
L 4019 0 
L 2900 0 
L 2900 506 
Q 2647 200 2364 54 
Q 2081 -91 1741 -91 
Q 1134 -91 817 281 
Q 500 653 500 1363 
z
" transform="scale(0.015625)"/>
     <path id="DejaVuSans-Bold-55" d="M 3138 2547 
Q 2991 2616 2845 2648 
Q 2700 2681 2553 2681 
Q 2122 2681 1889 2404 
Q 1656 2128 1656 1613 
L 1656 0 
L 538 0 
L 538 3500 
L 1656 3500 
L 1656 2925 
Q 1872 3269 2151 3426 
Q 2431 3584 2822 3584 
Q 2878 3584 2943 3579 
Q 3009 3575 3134 3559 
L 3138 2547 
z
" transform="scale(0.015625)"/>
     <path id="DejaVuSans-Bold-44" d="M 2106 1575 
Q 1756 1575 1579 1456 
Q 1403 1338 1403 1106 
Q 1403 894 1545 773 
Q 1688 653 1941 653 
Q 2256 653 2472 879 
Q 2688 1106 2688 1447 
L 2688 1575 
L 2106 1575 
z
M 3816 1997 
L 3816 0 
L 2688 0 
L 2688 519 
Q 2463 200 2181 54 
Q 1900 -91 1497 -91 
Q 953 -91 614 226 
Q 275 544 275 1050 
Q 275 1666 698 1953 
Q 1122 2241 2028 2241 
L 2688 2241 
L 2688 2328 
Q 2688 2594 2478 2717 
Q 2269 2841 1825 2841 
Q 1466 2841 1156 2769 
Q 847 2697 581 2553 
L 581 3406 
Q 941 3494 1303 3539 
Q 1666 3584 2028 3584 
Q 2975 3584 3395 3211 
Q 3816 2838 3816 1997 
z
" transform="scale(0.015625)"/>
     <path id="DejaVuSans-Bold-3" transform="scale(0.015625)"/>
     <path id="DejaVuSans-Bold-14" d="M 750 831 
L 1813 831 
L 1813 3847 
L 722 3622 
L 722 4441 
L 1806 4666 
L 2950 4666 
L 2950 831 
L 4013 831 
L 4013 0 
L 750 0 
L 750 831 
z
" transform="scale(0.015625)"/>
    </defs>
    <use xlink:href="#DejaVuSans-Bold-29"/>
    <use xlink:href="#DejaVuSans-Bold-4c" transform="translate(68.3125 0)"/>
    <use xlink:href="#DejaVuSans-Bold-4a" transform="translate(102.59375 0)"/>
    <use xlink:href="#DejaVuSans-Bold-58" transform="translate(174.171875 0)"/>
    <use xlink:href="#DejaVuSans-Bold-55" transform="translate(245.359375 0)"/>
    <use xlink:href="#DejaVuSans-Bold-44" transform="translate(294.671875 0)"/>
    <use xlink:href="#DejaVuSans-Bold-3" transform="translate(362.15625 0)"/>
    <use xlink:href="#DejaVuSans-Bold-14" transform="translate(396.96875 0)"/>
   </g>
  </g>
  <g id="text_20">
   <!-- Distribuição do comprimento da sequência de movimentos por processo -->
   <g style="fill: #262626" transform="translate(7.2 31.118281) scale(0.11 -0.11)">
    <defs>
     <path id="DejaVuSans-Oblique-27" d="M 1081 4666 
L 2438 4666 
Q 3519 4666 4070 4208 
Q 4622 3750 4622 2847 
Q 4622 2250 4412 1698 
Q 4203 1147 3834 769 
Q 3463 381 2891 190 
Q 2319 0 1538 0 
L 172 0 
L 1081 4666 
z
M 1613 4147 
L 909 519 
L 1734 519 
Q 2794 519 3375 1128 
Q 3956 1738 3956 2847 
Q 3956 3519 3581 3833 
Q 3206 4147 2406 4147 
L 1613 4147 
z
" transform="scale(0.015625)"/>
     <path id="DejaVuSans-Oblique-4c" d="M 1172 4863 
L 1747 4863 
L 1606 4134 
L 1031 4134 
L 1172 4863 
z
M 909 3500 
L 1484 3500 
L 800 0 
L 225 0 
L 909 3500 
z
" transform="scale(0.015625)"/>
     <path id="DejaVuSans-Oblique-56" d="M 3200 3397 
L 3091 2853 
Q 2863 2978 2609 3040 
Q 2356 3103 2088 3103 
Q 1634 3103 1373 2948 
Q 1113 2794 1113 2528 
Q 1113 2219 1719 2053 
Q 1766 2041 1788 2034 
L 1972 1978 
Q 2547 1819 2739 1644 
Q 2931 1469 2931 1166 
Q 2931 609 2489 259 
Q 2047 -91 1331 -91 
Q 1053 -91 747 -37 
Q 441 16 72 128 
L 184 722 
Q 500 559 806 475 
Q 1113 391 1394 391 
Q 1816 391 2080 572 
Q 2344 753 2344 1031 
Q 2344 1331 1650 1516 
L 1591 1531 
L 1394 1581 
Q 956 1697 753 1886 
Q 550 2075 550 2369 
Q 550 2928 970 3256 
Q 1391 3584 2113 3584 
Q 2397 3584 2667 3537 
Q 2938 3491 3200 3397 
z
" transform="scale(0.015625)"/>
     <path id="DejaVuSans-Oblique-57" d="M 2706 3500 
L 2619 3053 
L 1472 3053 
L 1100 1153 
Q 1081 1047 1072 975 
Q 1063 903 1063 863 
Q 1063 663 1183 572 
Q 1303 481 1569 481 
L 2150 481 
L 2053 0 
L 1503 0 
Q 991 0 739 200 
Q 488 400 488 806 
Q 488 878 497 964 
Q 506 1050 525 1153 
L 897 3053 
L 409 3053 
L 500 3500 
L 978 3500 
L 1172 4494 
L 1747 4494 
L 1556 3500 
L 2706 3500 
z
" transform="scale(0.015625)"/>
     <path id="DejaVuSans-Oblique-55" d="M 2853 2969 
Q 2766 3016 2653 3041 
Q 2541 3066 2413 3066 
Q 1953 3066 1609 2717 
Q 1266 2369 1153 1784 
L 800 0 
L 225 0 
L 909 3500 
L 1484 3500 
L 1375 2956 
Q 1603 3259 1920 3421 
Q 2238 3584 2597 3584 
Q 2691 3584 2781 3573 
Q 2872 3563 2963 3538 
L 2853 2969 
z
" transform="scale(0.015625)"/>
     <path id="DejaVuSans-Oblique-45" d="M 3169 2138 
Q 3169 2591 2961 2847 
Q 2753 3103 2388 3103 
Q 2122 3103 1889 2973 
Q 1656 2844 1484 2597 
Q 1303 2338 1198 1995 
Q 1094 1653 1094 1313 
Q 1094 881 1298 636 
Q 1503 391 1863 391 
Q 2134 391 2365 517 
Q 2597 644 2772 891 
Q 2950 1147 3059 1487 
Q 3169 1828 3169 2138 
z
M 1381 2969 
Q 1594 3256 1914 3420 
Q 2234 3584 2584 3584 
Q 3122 3584 3439 3221 
Q 3756 2859 3756 2241 
Q 3756 1734 3570 1259 
Q 3384 784 3041 416 
Q 2816 172 2522 40 
Q 2228 -91 1906 -91 
Q 1566 -91 1316 65 
Q 1066 222 909 531 
L 806 0 
L 231 0 
L 1178 4863 
L 1753 4863 
L 1381 2969 
z
" transform="scale(0.015625)"/>
     <path id="DejaVuSans-Oblique-58" d="M 428 1388 
L 838 3500 
L 1416 3500 
L 1006 1409 
Q 975 1256 961 1147 
Q 947 1038 947 966 
Q 947 700 1109 554 
Q 1272 409 1569 409 
Q 2031 409 2368 721 
Q 2706 1034 2809 1563 
L 3194 3500 
L 3769 3500 
L 3091 0 
L 2516 0 
L 2631 550 
Q 2388 244 2052 76 
Q 1716 -91 1338 -91 
Q 878 -91 622 161 
Q 366 413 366 863 
Q 366 956 381 1097 
Q 397 1238 428 1388 
z
" transform="scale(0.015625)"/>
     <path id="DejaVuSans-Oblique-a9" d="M 3431 3366 
L 3316 2797 
Q 3109 2947 2876 3022 
Q 2644 3097 2394 3097 
Q 2119 3097 1870 3000 
Q 1622 2903 1453 2725 
Q 1184 2453 1037 2087 
Q 891 1722 891 1331 
Q 891 859 1127 628 
Q 1363 397 1844 397 
Q 2081 397 2348 469 
Q 2616 541 2906 684 
L 2797 116 
Q 2547 13 2283 -39 
Q 2019 -91 1741 -91 
Q 1044 -91 669 257 
Q 294 606 294 1253 
Q 294 1797 489 2255 
Q 684 2713 1069 3078 
Q 1331 3328 1684 3456 
Q 2038 3584 2456 3584 
Q 2700 3584 2940 3529 
Q 3181 3475 3431 3366 
z
M 1863 0 
Q 1975 -159 2028 -295 
Q 2081 -431 2081 -563 
Q 2081 -875 1851 -1054 
Q 1622 -1234 1222 -1234 
Q 1088 -1234 953 -1215 
Q 819 -1197 685 -1159 
L 756 -750 
Q 878 -800 1001 -825 
Q 1125 -850 1256 -850 
Q 1444 -850 1555 -754 
Q 1666 -659 1666 -494 
Q 1666 -403 1627 -290 
Q 1588 -178 1491 0 
L 1863 0 
z
" transform="scale(0.015625)"/>
     <path id="DejaVuSans-Oblique-a5" d="M 3438 1997 
L 3047 0 
L 2472 0 
L 2578 531 
Q 2325 219 2001 64 
Q 1678 -91 1281 -91 
Q 834 -91 548 182 
Q 263 456 263 884 
Q 263 1497 752 1853 
Q 1241 2209 2100 2209 
L 2900 2209 
L 2931 2363 
Q 2938 2388 2941 2417 
Q 2944 2447 2944 2509 
Q 2944 2788 2717 2942 
Q 2491 3097 2081 3097 
Q 1800 3097 1504 3025 
Q 1209 2953 897 2809 
L 997 3341 
Q 1322 3463 1633 3523 
Q 1944 3584 2234 3584 
Q 2853 3584 3176 3315 
Q 3500 3047 3500 2534 
Q 3500 2431 3484 2292 
Q 3469 2153 3438 1997 
z
M 2816 1759 
L 2241 1759 
Q 1534 1759 1195 1570 
Q 856 1381 856 984 
Q 856 709 1029 553 
Q 1203 397 1509 397 
Q 1978 397 2328 733 
Q 2678 1069 2791 1631 
L 2816 1759 
z
M 2419 4281 
L 2279 4453 
Q 2238 4503 2188 4534 
Q 2138 4566 2088 4575 
Q 1966 4575 1886 4461 
Q 1807 4347 1754 4091 
L 1363 4091 
Q 1457 4519 1658 4745 
Q 1860 4972 2144 4972 
Q 2260 4972 2360 4923 
Q 2460 4875 2541 4781 
L 2688 4609 
Q 2726 4559 2769 4531 
Q 2813 4503 2872 4488 
Q 2991 4488 3067 4598 
Q 3144 4709 3207 4972 
L 3597 4972 
Q 3507 4544 3305 4317 
Q 3104 4091 2816 4091 
Q 2697 4091 2594 4139 
Q 2491 4188 2419 4281 
z
" transform="scale(0.015625)"/>
     <path id="DejaVuSans-Oblique-52" d="M 1625 -91 
Q 1009 -91 651 289 
Q 294 669 294 1325 
Q 294 1706 417 2101 
Q 541 2497 738 2766 
Q 1047 3184 1428 3384 
Q 1809 3584 2291 3584 
Q 2888 3584 3255 3212 
Q 3622 2841 3622 2241 
Q 3622 1825 3500 1412 
Q 3378 1000 3181 728 
Q 2875 309 2494 109 
Q 2113 -91 1625 -91 
z
M 891 1344 
Q 891 869 1089 633 
Q 1288 397 1691 397 
Q 2269 397 2648 901 
Q 3028 1406 3028 2181 
Q 3028 2634 2825 2865 
Q 2622 3097 2228 3097 
Q 1903 3097 1650 2945 
Q 1397 2794 1197 2484 
Q 1050 2253 970 1956 
Q 891 1659 891 1344 
z
" transform="scale(0.015625)"/>
     <path id="DejaVuSans-Oblique-3" transform="scale(0.015625)"/>
     <path id="DejaVuSans-Oblique-47" d="M 2675 525 
Q 2444 222 2128 65 
Q 1813 -91 1428 -91 
Q 903 -91 598 267 
Q 294 625 294 1247 
Q 294 1766 478 2236 
Q 663 2706 1013 3078 
Q 1244 3325 1534 3454 
Q 1825 3584 2144 3584 
Q 2481 3584 2739 3421 
Q 2997 3259 3138 2956 
L 3513 4863 
L 4091 4863 
L 3144 0 
L 2566 0 
L 2675 525 
z
M 891 1350 
Q 891 897 1095 644 
Q 1300 391 1663 391 
Q 1931 391 2161 520 
Q 2391 650 2566 903 
Q 2750 1166 2856 1509 
Q 2963 1853 2963 2188 
Q 2963 2622 2758 2865 
Q 2553 3109 2194 3109 
Q 1922 3109 1687 2981 
Q 1453 2853 1288 2613 
Q 1106 2353 998 2009 
Q 891 1666 891 1350 
z
" transform="scale(0.015625)"/>
     <path id="DejaVuSans-Oblique-46" d="M 3431 3366 
L 3316 2797 
Q 3109 2947 2876 3022 
Q 2644 3097 2394 3097 
Q 2119 3097 1870 3000 
Q 1622 2903 1453 2725 
Q 1184 2453 1037 2087 
Q 891 1722 891 1331 
Q 891 859 1127 628 
Q 1363 397 1844 397 
Q 2081 397 2348 469 
Q 2616 541 2906 684 
L 2797 116 
Q 2547 13 2283 -39 
Q 2019 -91 1741 -91 
Q 1044 -91 669 257 
Q 294 606 294 1253 
Q 294 1797 489 2255 
Q 684 2713 1069 3078 
Q 1331 3328 1684 3456 
Q 2038 3584 2456 3584 
Q 2700 3584 2940 3529 
Q 3181 3475 3431 3366 
z
" transform="scale(0.015625)"/>
     <path id="DejaVuSans-Oblique-50" d="M 5747 2113 
L 5338 0 
L 4763 0 
L 5166 2094 
Q 5191 2228 5203 2325 
Q 5216 2422 5216 2491 
Q 5216 2772 5059 2928 
Q 4903 3084 4622 3084 
Q 4203 3084 3875 2770 
Q 3547 2456 3450 1953 
L 3066 0 
L 2491 0 
L 2900 2094 
Q 2925 2209 2937 2307 
Q 2950 2406 2950 2484 
Q 2950 2769 2794 2926 
Q 2638 3084 2363 3084 
Q 1938 3084 1609 2770 
Q 1281 2456 1184 1953 
L 800 0 
L 225 0 
L 909 3500 
L 1484 3500 
L 1375 2956 
Q 1609 3263 1923 3423 
Q 2238 3584 2597 3584 
Q 2978 3584 3223 3384 
Q 3469 3184 3519 2828 
Q 3781 3197 4126 3390 
Q 4472 3584 4856 3584 
Q 5306 3584 5551 3325 
Q 5797 3066 5797 2591 
Q 5797 2488 5784 2364 
Q 5772 2241 5747 2113 
z
" transform="scale(0.015625)"/>
     <path id="DejaVuSans-Oblique-53" d="M 3175 2156 
Q 3175 2616 2975 2859 
Q 2775 3103 2400 3103 
Q 2144 3103 1911 2972 
Q 1678 2841 1497 2591 
Q 1319 2344 1212 1994 
Q 1106 1644 1106 1300 
Q 1106 863 1306 627 
Q 1506 391 1875 391 
Q 2147 391 2380 519 
Q 2613 647 2778 891 
Q 2956 1147 3065 1494 
Q 3175 1841 3175 2156 
z
M 1394 2969 
Q 1625 3272 1939 3428 
Q 2253 3584 2638 3584 
Q 3175 3584 3472 3232 
Q 3769 2881 3769 2247 
Q 3769 1728 3584 1258 
Q 3400 788 3053 416 
Q 2822 169 2531 39 
Q 2241 -91 1919 -91 
Q 1547 -91 1294 64 
Q 1041 219 916 525 
L 556 -1331 
L -19 -1331 
L 922 3500 
L 1497 3500 
L 1394 2969 
z
" transform="scale(0.015625)"/>
     <path id="DejaVuSans-Oblique-48" d="M 3078 2063 
Q 3088 2113 3092 2166 
Q 3097 2219 3097 2272 
Q 3097 2653 2873 2875 
Q 2650 3097 2266 3097 
Q 1838 3097 1509 2826 
Q 1181 2556 1013 2059 
L 3078 2063 
z
M 3578 1613 
L 903 1613 
Q 884 1494 878 1425 
Q 872 1356 872 1306 
Q 872 872 1139 634 
Q 1406 397 1894 397 
Q 2269 397 2603 481 
Q 2938 566 3225 728 
L 3116 159 
Q 2806 34 2476 -28 
Q 2147 -91 1806 -91 
Q 1078 -91 686 257 
Q 294 606 294 1247 
Q 294 1794 489 2264 
Q 684 2734 1063 3103 
Q 1306 3334 1642 3459 
Q 1978 3584 2356 3584 
Q 2950 3584 3301 3228 
Q 3653 2872 3653 2272 
Q 3653 2128 3634 1964 
Q 3616 1800 3578 1613 
z
" transform="scale(0.015625)"/>
     <path id="DejaVuSans-Oblique-51" d="M 3566 2113 
L 3156 0 
L 2578 0 
L 2988 2091 
Q 3016 2238 3031 2350 
Q 3047 2463 3047 2528 
Q 3047 2791 2881 2937 
Q 2716 3084 2419 3084 
Q 1956 3084 1622 2776 
Q 1288 2469 1184 1941 
L 800 0 
L 225 0 
L 903 3500 
L 1478 3500 
L 1363 2950 
Q 1603 3253 1940 3418 
Q 2278 3584 2650 3584 
Q 3113 3584 3367 3334 
Q 3622 3084 3622 2631 
Q 3622 2519 3608 2391 
Q 3594 2263 3566 2113 
z
" transform="scale(0.015625)"/>
     <path id="DejaVuSans-Oblique-44" d="M 3438 1997 
L 3047 0 
L 2472 0 
L 2578 531 
Q 2325 219 2001 64 
Q 1678 -91 1281 -91 
Q 834 -91 548 182 
Q 263 456 263 884 
Q 263 1497 752 1853 
Q 1241 2209 2100 2209 
L 2900 2209 
L 2931 2363 
Q 2938 2388 2941 2417 
Q 2944 2447 2944 2509 
Q 2944 2788 2717 2942 
Q 2491 3097 2081 3097 
Q 1800 3097 1504 3025 
Q 1209 2953 897 2809 
L 997 3341 
Q 1322 3463 1633 3523 
Q 1944 3584 2234 3584 
Q 2853 3584 3176 3315 
Q 3500 3047 3500 2534 
Q 3500 2431 3484 2292 
Q 3469 2153 3438 1997 
z
M 2816 1759 
L 2241 1759 
Q 1534 1759 1195 1570 
Q 856 1381 856 984 
Q 856 709 1029 553 
Q 1203 397 1509 397 
Q 1978 397 2328 733 
Q 2678 1069 2791 1631 
L 2816 1759 
z
" transform="scale(0.015625)"/>
     <path id="DejaVuSans-Oblique-54" d="M 2669 525 
Q 2438 222 2123 65 
Q 1809 -91 1428 -91 
Q 897 -91 595 267 
Q 294 625 294 1253 
Q 294 1759 480 2231 
Q 666 2703 1013 3078 
Q 1238 3322 1530 3453 
Q 1822 3584 2144 3584 
Q 2531 3584 2781 3431 
Q 3031 3278 3144 2969 
L 3244 3494 
L 3822 3494 
L 2888 -1319 
L 2309 -1319 
L 2669 525 
z
M 891 1338 
Q 891 875 1084 633 
Q 1278 391 1644 391 
Q 2188 391 2572 911 
Q 2956 1431 2956 2175 
Q 2956 2625 2757 2864 
Q 2559 3103 2188 3103 
Q 1916 3103 1684 2976 
Q 1453 2850 1281 2606 
Q 1100 2350 995 2006 
Q 891 1663 891 1338 
z
" transform="scale(0.015625)"/>
     <path id="DejaVuSans-Oblique-ac" d="M 3078 2063 
Q 3088 2113 3092 2166 
Q 3097 2219 3097 2272 
Q 3097 2653 2873 2875 
Q 2650 3097 2266 3097 
Q 1838 3097 1509 2826 
Q 1181 2556 1013 2059 
L 3078 2063 
z
M 3578 1613 
L 903 1613 
Q 884 1494 878 1425 
Q 872 1356 872 1306 
Q 872 872 1139 634 
Q 1406 397 1894 397 
Q 2269 397 2603 481 
Q 2938 566 3225 728 
L 3116 159 
Q 2806 34 2476 -28 
Q 2147 -91 1806 -91 
Q 1078 -91 686 257 
Q 294 606 294 1247 
Q 294 1794 489 2264 
Q 684 2734 1063 3103 
Q 1306 3334 1642 3459 
Q 1978 3584 2356 3584 
Q 2950 3584 3301 3228 
Q 3653 2872 3653 2272 
Q 3653 2128 3634 1964 
Q 3616 1800 3578 1613 
z
M 2400 5119 
L 2863 5119 
L 3400 3944 
L 2966 3944 
L 2569 4684 
L 1838 3944 
L 1403 3944 
L 2400 5119 
z
" transform="scale(0.015625)"/>
     <path id="DejaVuSans-Oblique-59" d="M 459 3500 
L 1069 3500 
L 1581 525 
L 3256 3500 
L 3866 3500 
L 1875 0 
L 1100 0 
L 459 3500 
z
" transform="scale(0.015625)"/>
    </defs>
    <use xlink:href="#DejaVuSans-Oblique-27"/>
    <use xlink:href="#DejaVuSans-Oblique-4c" transform="translate(77 0)"/>
    <use xlink:href="#DejaVuSans-Oblique-56" transform="translate(104.78125 0)"/>
    <use xlink:href="#DejaVuSans-Oblique-57" transform="translate(156.875 0)"/>
    <use xlink:href="#DejaVuSans-Oblique-55" transform="translate(196.078125 0)"/>
    <use xlink:href="#DejaVuSans-Oblique-4c" transform="translate(237.1875 0)"/>
    <use xlink:href="#DejaVuSans-Oblique-45" transform="translate(264.96875 0)"/>
    <use xlink:href="#DejaVuSans-Oblique-58" transform="translate(328.453125 0)"/>
    <use xlink:href="#DejaVuSans-Oblique-4c" transform="translate(391.828125 0)"/>
    <use xlink:href="#DejaVuSans-Oblique-a9" transform="translate(419.609375 0)"/>
    <use xlink:href="#DejaVuSans-Oblique-a5" transform="translate(474.59375 0)"/>
    <use xlink:href="#DejaVuSans-Oblique-52" transform="translate(535.875 0)"/>
    <use xlink:href="#DejaVuSans-Oblique-3" transform="translate(597.0625 0)"/>
    <use xlink:href="#DejaVuSans-Oblique-47" transform="translate(628.84375 0)"/>
    <use xlink:href="#DejaVuSans-Oblique-52" transform="translate(692.328125 0)"/>
    <use xlink:href="#DejaVuSans-Oblique-3" transform="translate(753.515625 0)"/>
    <use xlink:href="#DejaVuSans-Oblique-46" transform="translate(785.296875 0)"/>
    <use xlink:href="#DejaVuSans-Oblique-52" transform="translate(840.28125 0)"/>
    <use xlink:href="#DejaVuSans-Oblique-50" transform="translate(901.46875 0)"/>
    <use xlink:href="#DejaVuSans-Oblique-53" transform="translate(998.875 0)"/>
    <use xlink:href="#DejaVuSans-Oblique-55" transform="translate(1062.359375 0)"/>
    <use xlink:href="#DejaVuSans-Oblique-4c" transform="translate(1103.46875 0)"/>
    <use xlink:href="#DejaVuSans-Oblique-50" transform="translate(1131.25 0)"/>
    <use xlink:href="#DejaVuSans-Oblique-48" transform="translate(1228.65625 0)"/>
    <use xlink:href="#DejaVuSans-Oblique-51" transform="translate(1290.1875 0)"/>
    <use xlink:href="#DejaVuSans-Oblique-57" transform="translate(1353.5625 0)"/>
    <use xlink:href="#DejaVuSans-Oblique-52" transform="translate(1392.765625 0)"/>
    <use xlink:href="#DejaVuSans-Oblique-3" transform="translate(1453.953125 0)"/>
    <use xlink:href="#DejaVuSans-Oblique-47" transform="translate(1485.734375 0)"/>
    <use xlink:href="#DejaVuSans-Oblique-44" transform="translate(1549.21875 0)"/>
    <use xlink:href="#DejaVuSans-Oblique-3" transform="translate(1610.5 0)"/>
    <use xlink:href="#DejaVuSans-Oblique-56" transform="translate(1642.28125 0)"/>
    <use xlink:href="#DejaVuSans-Oblique-48" transform="translate(1694.375 0)"/>
    <use xlink:href="#DejaVuSans-Oblique-54" transform="translate(1755.90625 0)"/>
    <use xlink:href="#DejaVuSans-Oblique-58" transform="translate(1819.390625 0)"/>
    <use xlink:href="#DejaVuSans-Oblique-ac" transform="translate(1882.765625 0)"/>
    <use xlink:href="#DejaVuSans-Oblique-51" transform="translate(1944.296875 0)"/>
    <use xlink:href="#DejaVuSans-Oblique-46" transform="translate(2007.671875 0)"/>
    <use xlink:href="#DejaVuSans-Oblique-4c" transform="translate(2062.65625 0)"/>
    <use xlink:href="#DejaVuSans-Oblique-44" transform="translate(2090.4375 0)"/>
    <use xlink:href="#DejaVuSans-Oblique-3" transform="translate(2151.71875 0)"/>
    <use xlink:href="#DejaVuSans-Oblique-47" transform="translate(2183.5 0)"/>
    <use xlink:href="#DejaVuSans-Oblique-48" transform="translate(2246.984375 0)"/>
    <use xlink:href="#DejaVuSans-Oblique-3" transform="translate(2308.515625 0)"/>
    <use xlink:href="#DejaVuSans-Oblique-50" transform="translate(2340.296875 0)"/>
    <use xlink:href="#DejaVuSans-Oblique-52" transform="translate(2437.703125 0)"/>
    <use xlink:href="#DejaVuSans-Oblique-59" transform="translate(2498.890625 0)"/>
    <use xlink:href="#DejaVuSans-Oblique-4c" transform="translate(2558.078125 0)"/>
    <use xlink:href="#DejaVuSans-Oblique-50" transform="translate(2585.859375 0)"/>
    <use xlink:href="#DejaVuSans-Oblique-48" transform="translate(2683.265625 0)"/>
    <use xlink:href="#DejaVuSans-Oblique-51" transform="translate(2744.796875 0)"/>
    <use xlink:href="#DejaVuSans-Oblique-57" transform="translate(2808.171875 0)"/>
    <use xlink:href="#DejaVuSans-Oblique-52" transform="translate(2847.375 0)"/>
    <use xlink:href="#DejaVuSans-Oblique-56" transform="translate(2908.5625 0)"/>
    <use xlink:href="#DejaVuSans-Oblique-3" transform="translate(2960.65625 0)"/>
    <use xlink:href="#DejaVuSans-Oblique-53" transform="translate(2992.4375 0)"/>
    <use xlink:href="#DejaVuSans-Oblique-52" transform="translate(3055.921875 0)"/>
    <use xlink:href="#DejaVuSans-Oblique-55" transform="translate(3117.109375 0)"/>
    <use xlink:href="#DejaVuSans-Oblique-3" transform="translate(3158.21875 0)"/>
    <use xlink:href="#DejaVuSans-Oblique-53" transform="translate(3190 0)"/>
    <use xlink:href="#DejaVuSans-Oblique-55" transform="translate(3253.484375 0)"/>
    <use xlink:href="#DejaVuSans-Oblique-52" transform="translate(3294.59375 0)"/>
    <use xlink:href="#DejaVuSans-Oblique-46" transform="translate(3355.78125 0)"/>
    <use xlink:href="#DejaVuSans-Oblique-48" transform="translate(3410.765625 0)"/>
    <use xlink:href="#DejaVuSans-Oblique-56" transform="translate(3472.296875 0)"/>
    <use xlink:href="#DejaVuSans-Oblique-56" transform="translate(3524.390625 0)"/>
    <use xlink:href="#DejaVuSans-Oblique-52" transform="translate(3576.484375 0)"/>
   </g>
  </g>
  <g id="text_21">
   <!-- Nota. Linha tracejada = mediana; linha pontilhada = percentil 5. Amostra TRF2 com baixa definitiva em 2025. -->
   <g style="fill: #262626" transform="translate(7.2 304.654125) scale(0.08 -0.08)">
    <defs>
     <path id="DejaVuSans-Oblique-31" d="M 1081 4666 
L 1931 4666 
L 3219 666 
L 4000 4666 
L 4616 4666 
L 3706 0 
L 2853 0 
L 1569 4025 
L 788 0 
L 172 0 
L 1081 4666 
z
" transform="scale(0.015625)"/>
     <path id="DejaVuSans-Oblique-11" d="M 525 794 
L 1184 794 
L 1031 0 
L 372 0 
L 525 794 
z
" transform="scale(0.015625)"/>
     <path id="DejaVuSans-Oblique-2f" d="M 1075 4666 
L 1709 4666 
L 909 525 
L 3181 525 
L 3078 0 
L 172 0 
L 1075 4666 
z
" transform="scale(0.015625)"/>
     <path id="DejaVuSans-Oblique-4b" d="M 3566 2113 
L 3156 0 
L 2578 0 
L 2988 2091 
Q 3016 2238 3031 2350 
Q 3047 2463 3047 2528 
Q 3047 2791 2881 2937 
Q 2716 3084 2419 3084 
Q 1956 3084 1617 2771 
Q 1278 2459 1178 1941 
L 800 0 
L 225 0 
L 1172 4863 
L 1747 4863 
L 1375 2950 
Q 1594 3244 1934 3414 
Q 2275 3584 2650 3584 
Q 3113 3584 3367 3334 
Q 3622 3084 3622 2631 
Q 3622 2519 3608 2391 
Q 3594 2263 3566 2113 
z
" transform="scale(0.015625)"/>
     <path id="DejaVuSans-Oblique-4d" d="M 928 3500 
L 1503 3500 
L 813 -63 
L 809 -78 
Q 694 -675 544 -897 
Q 403 -1106 132 -1218 
Q -138 -1331 -506 -1331 
L -722 -1331 
L -628 -844 
L -481 -844 
Q -144 -844 -1 -703 
Q 141 -563 238 -63 
L 928 3500 
z
M 1197 4863 
L 1772 4863 
L 1631 4134 
L 1056 4134 
L 1197 4863 
z
" transform="scale(0.015625)"/>
     <path id="DejaVuSans-Oblique-20" d="M 678 2906 
L 4684 2906 
L 4684 2381 
L 678 2381 
L 678 2906 
z
M 678 1631 
L 4684 1631 
L 4684 1100 
L 678 1100 
L 678 1631 
z
" transform="scale(0.015625)"/>
     <path id="DejaVuSans-Oblique-1e" d="M 563 794 
L 1222 794 
L 1113 256 
L 409 -744 
L 6 -744 
L 453 256 
L 563 794 
z
M 1050 3309 
L 1709 3309 
L 1556 2516 
L 897 2516 
L 1050 3309 
z
" transform="scale(0.015625)"/>
     <path id="DejaVuSans-Oblique-4f" d="M 1172 4863 
L 1747 4863 
L 800 0 
L 225 0 
L 1172 4863 
z
" transform="scale(0.015625)"/>
     <path id="DejaVuSans-Oblique-18" d="M 3719 4666 
L 3622 4141 
L 1691 4141 
L 1466 2988 
Q 1609 3034 1757 3056 
Q 1906 3078 2059 3078 
Q 2706 3078 3081 2731 
Q 3456 2384 3456 1791 
Q 3456 1375 3264 994 
Q 3072 613 2719 325 
Q 2469 125 2108 17 
Q 1747 -91 1319 -91 
Q 1038 -91 744 -41 
Q 450 9 128 109 
L 244 697 
Q 531 556 820 486 
Q 1109 416 1403 416 
Q 2013 416 2411 781 
Q 2809 1147 2809 1697 
Q 2809 2103 2548 2328 
Q 2288 2553 1819 2553 
Q 1572 2553 1305 2495 
Q 1038 2438 756 2322 
L 1209 4666 
L 3719 4666 
z
" transform="scale(0.015625)"/>
     <path id="DejaVuSans-Oblique-24" d="M 2356 4666 
L 3072 4666 
L 3938 0 
L 3278 0 
L 3084 1197 
L 984 1197 
L 325 0 
L -341 0 
L 2356 4666 
z
M 2584 4044 
L 1275 1722 
L 2988 1722 
L 2584 4044 
z
" transform="scale(0.015625)"/>
     <path id="DejaVuSans-Oblique-37" d="M 378 4666 
L 4325 4666 
L 4225 4134 
L 2559 4134 
L 1759 0 
L 1125 0 
L 1925 4134 
L 275 4134 
L 378 4666 
z
" transform="scale(0.015625)"/>
     <path id="DejaVuSans-Oblique-35" d="M 1613 4147 
L 1294 2491 
L 2106 2491 
Q 2584 2491 2879 2755 
Q 3175 3019 3175 3444 
Q 3175 3784 2976 3965 
Q 2778 4147 2406 4147 
L 1613 4147 
z
M 2772 2241 
Q 2972 2194 3105 2009 
Q 3238 1825 3413 1275 
L 3809 0 
L 3144 0 
L 2778 1197 
Q 2638 1659 2453 1815 
Q 2269 1972 1888 1972 
L 1191 1972 
L 806 0 
L 172 0 
L 1081 4666 
L 2503 4666 
Q 3150 4666 3495 4373 
Q 3841 4081 3841 3531 
Q 3841 3044 3547 2687 
Q 3253 2331 2772 2241 
z
" transform="scale(0.015625)"/>
     <path id="DejaVuSans-Oblique-29" d="M 1081 4666 
L 3756 4666 
L 3653 4134 
L 1606 4134 
L 1338 2759 
L 3188 2759 
L 3084 2228 
L 1234 2228 
L 800 0 
L 172 0 
L 1081 4666 
z
" transform="scale(0.015625)"/>
     <path id="DejaVuSans-Oblique-15" d="M 2950 2253 
L 934 525 
L 3163 525 
L 3053 0 
L 25 0 
L 128 531 
L 2234 2338 
Q 2656 2703 2832 2979 
Q 3009 3256 3009 3547 
Q 3009 3850 2796 4040 
Q 2584 4231 2241 4231 
Q 1944 4231 1581 4125 
Q 1219 4019 806 3816 
L 922 4441 
Q 1309 4594 1662 4672 
Q 2016 4750 2316 4750 
Q 2928 4750 3301 4425 
Q 3675 4100 3675 3572 
Q 3675 3216 3497 2892 
Q 3319 2569 2950 2253 
z
" transform="scale(0.015625)"/>
     <path id="DejaVuSans-Oblique-5b" d="M 3841 3500 
L 2234 1784 
L 3219 0 
L 2559 0 
L 1819 1388 
L 531 0 
L -166 0 
L 1556 1844 
L 641 3500 
L 1300 3500 
L 1972 2234 
L 3144 3500 
L 3841 3500 
z
" transform="scale(0.015625)"/>
     <path id="DejaVuSans-Oblique-127c" d="M 3525 4863 
L 4103 4863 
L 3963 4134 
L 3384 4134 
L 3525 4863 
z
M 3059 4863 
L 2969 4384 
L 2419 4384 
Q 2106 4384 1964 4261 
Q 1822 4138 1753 3809 
L 1691 3500 
L 3841 3500 
L 3156 0 
L 2578 0 
L 3188 3056 
L 1606 3056 
L 1013 0 
L 434 0 
L 1031 3053 
L 481 3053 
L 563 3500 
L 1113 3500 
L 1159 3744 
Q 1278 4363 1575 4613 
Q 1875 4863 2516 4863 
L 3059 4863 
z
" transform="scale(0.015625)"/>
     <path id="DejaVuSans-Oblique-13" d="M 2444 4750 
Q 3078 4750 3414 4328 
Q 3750 3906 3750 3116 
Q 3750 2516 3592 1923 
Q 3434 1331 3150 863 
Q 2859 394 2467 151 
Q 2075 -91 1600 -91 
Q 988 -91 653 334 
Q 319 759 319 1544 
Q 319 2138 480 2733 
Q 641 3328 928 3794 
Q 1216 4263 1602 4506 
Q 1988 4750 2444 4750 
z
M 2406 4250 
Q 2169 4250 1955 4123 
Q 1741 3997 1569 3750 
Q 1281 3338 1111 2720 
Q 941 2103 941 1453 
Q 941 938 1123 673 
Q 1306 409 1663 409 
Q 1913 409 2125 536 
Q 2338 663 2509 909 
Q 2794 1319 2961 1936 
Q 3128 2553 3128 3206 
Q 3128 3722 2945 3986 
Q 2763 4250 2406 4250 
z
" transform="scale(0.015625)"/>
    </defs>
    <use xlink:href="#DejaVuSans-Oblique-31"/>
    <use xlink:href="#DejaVuSans-Oblique-52" transform="translate(74.8125 0)"/>
    <use xlink:href="#DejaVuSans-Oblique-57" transform="translate(136 0)"/>
    <use xlink:href="#DejaVuSans-Oblique-44" transform="translate(175.203125 0)"/>
    <use xlink:href="#DejaVuSans-Oblique-11" transform="translate(236.484375 0)"/>
    <use xlink:href="#DejaVuSans-Oblique-3" transform="translate(268.265625 0)"/>
    <use xlink:href="#DejaVuSans-Oblique-2f" transform="translate(300.046875 0)"/>
    <use xlink:href="#DejaVuSans-Oblique-4c" transform="translate(355.765625 0)"/>
    <use xlink:href="#DejaVuSans-Oblique-51" transform="translate(383.546875 0)"/>
    <use xlink:href="#DejaVuSans-Oblique-4b" transform="translate(446.921875 0)"/>
    <use xlink:href="#DejaVuSans-Oblique-44" transform="translate(510.296875 0)"/>
    <use xlink:href="#DejaVuSans-Oblique-3" transform="translate(571.578125 0)"/>
    <use xlink:href="#DejaVuSans-Oblique-57" transform="translate(603.359375 0)"/>
    <use xlink:href="#DejaVuSans-Oblique-55" transform="translate(642.5625 0)"/>
    <use xlink:href="#DejaVuSans-Oblique-44" transform="translate(683.671875 0)"/>
    <use xlink:href="#DejaVuSans-Oblique-46" transform="translate(744.953125 0)"/>
    <use xlink:href="#DejaVuSans-Oblique-48" transform="translate(799.9375 0)"/>
    <use xlink:href="#DejaVuSans-Oblique-4d" transform="translate(861.46875 0)"/>
    <use xlink:href="#DejaVuSans-Oblique-44" transform="translate(889.25 0)"/>
    <use xlink:href="#DejaVuSans-Oblique-47" transform="translate(950.53125 0)"/>
    <use xlink:href="#DejaVuSans-Oblique-44" transform="translate(1014.015625 0)"/>
    <use xlink:href="#DejaVuSans-Oblique-3" transform="translate(1075.296875 0)"/>
    <use xlink:href="#DejaVuSans-Oblique-20" transform="translate(1107.078125 0)"/>
    <use xlink:href="#DejaVuSans-Oblique-3" transform="translate(1190.875 0)"/>
    <use xlink:href="#DejaVuSans-Oblique-50" transform="translate(1222.65625 0)"/>
    <use xlink:href="#DejaVuSans-Oblique-48" transform="translate(1320.0625 0)"/>
    <use xlink:href="#DejaVuSans-Oblique-47" transform="translate(1381.59375 0)"/>
    <use xlink:href="#DejaVuSans-Oblique-4c" transform="translate(1445.078125 0)"/>
    <use xlink:href="#DejaVuSans-Oblique-44" transform="translate(1472.859375 0)"/>
    <use xlink:href="#DejaVuSans-Oblique-51" transform="translate(1534.140625 0)"/>
    <use xlink:href="#DejaVuSans-Oblique-44" transform="translate(1597.515625 0)"/>
    <use xlink:href="#DejaVuSans-Oblique-1e" transform="translate(1658.796875 0)"/>
    <use xlink:href="#DejaVuSans-Oblique-3" transform="translate(1692.484375 0)"/>
    <use xlink:href="#DejaVuSans-Oblique-4f" transform="translate(1724.265625 0)"/>
    <use xlink:href="#DejaVuSans-Oblique-4c" transform="translate(1752.046875 0)"/>
    <use xlink:href="#DejaVuSans-Oblique-51" transform="translate(1779.828125 0)"/>
    <use xlink:href="#DejaVuSans-Oblique-4b" transform="translate(1843.203125 0)"/>
    <use xlink:href="#DejaVuSans-Oblique-44" transform="translate(1906.578125 0)"/>
    <use xlink:href="#DejaVuSans-Oblique-3" transform="translate(1967.859375 0)"/>
    <use xlink:href="#DejaVuSans-Oblique-53" transform="translate(1999.640625 0)"/>
    <use xlink:href="#DejaVuSans-Oblique-52" transform="translate(2063.125 0)"/>
    <use xlink:href="#DejaVuSans-Oblique-51" transform="translate(2124.3125 0)"/>
    <use xlink:href="#DejaVuSans-Oblique-57" transform="translate(2187.6875 0)"/>
    <use xlink:href="#DejaVuSans-Oblique-4c" transform="translate(2226.890625 0)"/>
    <use xlink:href="#DejaVuSans-Oblique-4f" transform="translate(2254.671875 0)"/>
    <use xlink:href="#DejaVuSans-Oblique-4b" transform="translate(2282.453125 0)"/>
    <use xlink:href="#DejaVuSans-Oblique-44" transform="translate(2345.828125 0)"/>
    <use xlink:href="#DejaVuSans-Oblique-47" transform="translate(2407.109375 0)"/>
    <use xlink:href="#DejaVuSans-Oblique-44" transform="translate(2470.59375 0)"/>
    <use xlink:href="#DejaVuSans-Oblique-3" transform="translate(2531.875 0)"/>
    <use xlink:href="#DejaVuSans-Oblique-20" transform="translate(2563.65625 0)"/>
    <use xlink:href="#DejaVuSans-Oblique-3" transform="translate(2647.453125 0)"/>
    <use xlink:href="#DejaVuSans-Oblique-53" transform="translate(2679.234375 0)"/>
    <use xlink:href="#DejaVuSans-Oblique-48" transform="translate(2742.71875 0)"/>
    <use xlink:href="#DejaVuSans-Oblique-55" transform="translate(2804.25 0)"/>
    <use xlink:href="#DejaVuSans-Oblique-46" transform="translate(2845.359375 0)"/>
    <use xlink:href="#DejaVuSans-Oblique-48" transform="translate(2900.34375 0)"/>
    <use xlink:href="#DejaVuSans-Oblique-51" transform="translate(2961.875 0)"/>
    <use xlink:href="#DejaVuSans-Oblique-57" transform="translate(3025.25 0)"/>
    <use xlink:href="#DejaVuSans-Oblique-4c" transform="translate(3064.453125 0)"/>
    <use xlink:href="#DejaVuSans-Oblique-4f" transform="translate(3092.234375 0)"/>
    <use xlink:href="#DejaVuSans-Oblique-3" transform="translate(3120.015625 0)"/>
    <use xlink:href="#DejaVuSans-Oblique-18" transform="translate(3151.796875 0)"/>
    <use xlink:href="#DejaVuSans-Oblique-11" transform="translate(3215.421875 0)"/>
    <use xlink:href="#DejaVuSans-Oblique-3" transform="translate(3247.203125 0)"/>
    <use xlink:href="#DejaVuSans-Oblique-24" transform="translate(3278.984375 0)"/>
    <use xlink:href="#DejaVuSans-Oblique-50" transform="translate(3347.390625 0)"/>
    <use xlink:href="#DejaVuSans-Oblique-52" transform="translate(3444.796875 0)"/>
    <use xlink:href="#DejaVuSans-Oblique-56" transform="translate(3505.984375 0)"/>
    <use xlink:href="#DejaVuSans-Oblique-57" transform="translate(3558.078125 0)"/>
    <use xlink:href="#DejaVuSans-Oblique-55" transform="translate(3597.28125 0)"/>
    <use xlink:href="#DejaVuSans-Oblique-44" transform="translate(3638.390625 0)"/>
    <use xlink:href="#DejaVuSans-Oblique-3" transform="translate(3699.671875 0)"/>
    <use xlink:href="#DejaVuSans-Oblique-37" transform="translate(3731.453125 0)"/>
    <use xlink:href="#DejaVuSans-Oblique-35" transform="translate(3792.53125 0)"/>
    <use xlink:href="#DejaVuSans-Oblique-29" transform="translate(3862.015625 0)"/>
    <use xlink:href="#DejaVuSans-Oblique-15" transform="translate(3919.53125 0)"/>
    <use xlink:href="#DejaVuSans-Oblique-3" transform="translate(3983.15625 0)"/>
    <use xlink:href="#DejaVuSans-Oblique-46" transform="translate(4014.9375 0)"/>
    <use xlink:href="#DejaVuSans-Oblique-52" transform="translate(4069.921875 0)"/>
    <use xlink:href="#DejaVuSans-Oblique-50" transform="translate(4131.109375 0)"/>
    <use xlink:href="#DejaVuSans-Oblique-3" transform="translate(4228.515625 0)"/>
    <use xlink:href="#DejaVuSans-Oblique-45" transform="translate(4260.296875 0)"/>
    <use xlink:href="#DejaVuSans-Oblique-44" transform="translate(4323.78125 0)"/>
    <use xlink:href="#DejaVuSans-Oblique-4c" transform="translate(4385.0625 0)"/>
    <use xlink:href="#DejaVuSans-Oblique-5b" transform="translate(4412.84375 0)"/>
    <use xlink:href="#DejaVuSans-Oblique-44" transform="translate(4472.03125 0)"/>
    <use xlink:href="#DejaVuSans-Oblique-3" transform="translate(4533.3125 0)"/>
    <use xlink:href="#DejaVuSans-Oblique-47" transform="translate(4565.09375 0)"/>
    <use xlink:href="#DejaVuSans-Oblique-48" transform="translate(4628.578125 0)"/>
    <use xlink:href="#DejaVuSans-Oblique-127c" transform="translate(4690.109375 0)"/>
    <use xlink:href="#DejaVuSans-Oblique-51" transform="translate(4754.703125 0)"/>
    <use xlink:href="#DejaVuSans-Oblique-4c" transform="translate(4818.078125 0)"/>
    <use xlink:href="#DejaVuSans-Oblique-57" transform="translate(4845.859375 0)"/>
    <use xlink:href="#DejaVuSans-Oblique-4c" transform="translate(4885.0625 0)"/>
    <use xlink:href="#DejaVuSans-Oblique-59" transform="translate(4912.84375 0)"/>
    <use xlink:href="#DejaVuSans-Oblique-44" transform="translate(4972.03125 0)"/>
    <use xlink:href="#DejaVuSans-Oblique-3" transform="translate(5033.3125 0)"/>
    <use xlink:href="#DejaVuSans-Oblique-48" transform="translate(5065.09375 0)"/>
    <use xlink:href="#DejaVuSans-Oblique-50" transform="translate(5126.625 0)"/>
    <use xlink:href="#DejaVuSans-Oblique-3" transform="translate(5224.03125 0)"/>
    <use xlink:href="#DejaVuSans-Oblique-15" transform="translate(5255.8125 0)"/>
    <use xlink:href="#DejaVuSans-Oblique-13" transform="translate(5319.4375 0)"/>
    <use xlink:href="#DejaVuSans-Oblique-15" transform="translate(5383.0625 0)"/>
    <use xlink:href="#DejaVuSans-Oblique-18" transform="translate(5446.6875 0)"/>
    <use xlink:href="#DejaVuSans-Oblique-11" transform="translate(5510.3125 0)"/>
   </g>
  </g>
 </g>
 <defs>
  <clipPath id="pb92d6c0dca">
   <rect x="68.462344" y="47.376" width="444.177656" height="206.889656"/>
  </clipPath>
 </defs>
</svg>
